<svg width="20" height="28" fill="none" xmlns="http://www.w3.org/2000/svg"><path d="M4.864 17.642a26.733 26.733 0 00-1.237-.001.546.546 0 00-.536.545v5.083a.545.545 0 001.09 0v-1.996h.803c.7 0 1.743-.464 1.743-1.742 0-.667-.242-1.8-1.863-1.89zm.12 2.54h-.802v-1.457c.247-.002.5-.001.622.006.552.03.832.163.832.8 0 .554-.412.646-.652.651zm11.562-2.549h-2.182a.545.545 0 00-.546.546v5.09a.545.545 0 001.091 0v-2h1.455a.545.545 0 100-1.09h-1.455v-1.455h1.636a.545.545 0 100-1.09zm-7.819 0a.545.545 0 00-.545.546v5.08c0 .282.215.517.495.543.02.002.142.012.331.012.592 0 1.843-.1 2.692-.875.56-.512.845-1.209.845-2.07 0-2.675-2.076-3.236-3.818-3.236zm2.24 4.497c-.477.438-1.21.558-1.694.585v-3.974c1.15.082 2.182.493 2.182 2.127 0 .549-.16.962-.488 1.262z" fill="#1A3D8A"/><path d="M19.858 6.616L13.871.156a.477.477 0 00-.35-.156H.491C.222 0 0 .235 0 .524v26.22c0 .29.22.524.492.524h19.016c.272 0 .492-.235.492-.524V6.984c0-.137-.05-.27-.142-.368zm-5.76-4.723l4.24 4.575h-4.24V1.893zM.984 26.22V1.05h12.13v5.942c0 .29.221.525.493.525h5.41V26.22H.983z" fill="#1A3D8A"/></svg>