<svg width="108" height="103" fill="none" xmlns="http://www.w3.org/2000/svg"><circle cx="50" cy="48" r="45" fill="url(#paint0_linear_66_559)" opacity=".25"/><circle cx="45" cy="58" r="45" fill="url(#paint1_linear_66_559)" opacity=".15"/><circle cx="63" cy="54" r="45" fill="url(#paint2_linear_66_559)" opacity=".25"/><circle cx="60" cy="45" r="45" fill="url(#paint3_linear_66_559)" opacity=".15"/><circle cx="54" cy="51" r="40" fill="url(#paint4_linear_66_559)" opacity=".4"/><path d="M53.979 50.757c6.826 0 12.38-5.552 12.38-12.376C66.36 31.555 60.806 26 53.98 26c-6.827 0-12.382 5.554-12.382 12.38 0 6.825 5.555 12.377 12.382 12.377zm0-23.037c4.56 0 8.45 2.884 9.97 6.92-1.658-.725-4.55-2.229-6.378-3.225a.858.858 0 00-.78-.022c-.042.02-4.273 2.021-7.025 3.168l-.261.11c-2.087.871-3.428 1.43-5.994 1.71.94-4.925 5.272-8.662 10.468-8.662zm-10.65 10.41c3.056-.294 4.586-.931 6.839-1.873l.26-.108c2.29-.954 5.579-2.487 6.704-3.015 1.422.767 5.855 3.126 7.358 3.544.09.556.15 1.122.15 1.703 0 5.876-4.783 10.657-10.662 10.657-5.879 0-10.662-4.78-10.662-10.657 0-.085.012-.167.014-.251zm10.52 15.381C42.353 53.511 33 63.215 33 75.141a.86.86 0 00.86.859h39.978a.86.86 0 00.86-.86c0-11.925-9.353-21.629-20.85-21.629zm-19.112 20.77c.434-10.581 8.84-19.05 19.112-19.05 10.271 0 18.678 8.469 19.112 19.05H34.737z" fill="#fff"/><path d="M44.75 75.291v-18.34m18.054 17.767V56.95" stroke="#fff" stroke-width="3"/><defs><linearGradient id="paint0_linear_66_559" x1="81.5" y1="18.696" x2="16.813" y2="77.196" gradientUnits="userSpaceOnUse"><stop stop-color="#9EBCFF"/><stop offset="1" stop-color="#00BF96"/></linearGradient><linearGradient id="paint1_linear_66_559" x1="76.5" y1="28.696" x2="11.813" y2="87.196" gradientUnits="userSpaceOnUse"><stop stop-color="#9EBCFF"/><stop offset="1" stop-color="#00BF96"/></linearGradient><linearGradient id="paint2_linear_66_559" x1="94.5" y1="24.696" x2="29.813" y2="83.196" gradientUnits="userSpaceOnUse"><stop stop-color="#9EBCFF"/><stop offset="1" stop-color="#00BF96"/></linearGradient><linearGradient id="paint3_linear_66_559" x1="91.5" y1="15.696" x2="26.813" y2="74.196" gradientUnits="userSpaceOnUse"><stop stop-color="#9EBCFF"/><stop offset="1" stop-color="#00BF96"/></linearGradient><linearGradient id="paint4_linear_66_559" x1="82" y1="24.952" x2="24.5" y2="76.952" gradientUnits="userSpaceOnUse"><stop stop-color="#1A3D8A"/><stop offset="1" stop-color="#00BF96"/></linearGradient></defs></svg>