<svg width="108" height="103" fill="none" xmlns="http://www.w3.org/2000/svg"><circle cx="50" cy="48" r="45" fill="url(#paint0_linear_66_606)" opacity=".25"/><circle cx="45" cy="58" r="45" fill="url(#paint1_linear_66_606)" opacity=".15"/><circle cx="63" cy="54" r="45" fill="url(#paint2_linear_66_606)" opacity=".25"/><circle cx="60" cy="45" r="45" fill="url(#paint3_linear_66_606)" opacity=".15"/><circle cx="54" cy="51" r="40" fill="url(#paint4_linear_66_606)" opacity=".4"/><path d="M81.703 45.824C77.196 34.496 67.118 27.12 55.605 26.649v-2.481c0-.708-.47-1.168-1.166-1.168-.695 0-1.166.471-1.166 1.168v2.48c-11.524.472-21.714 7.972-26.22 19.4-.314 1.09.84 1.943 1.748 1.404 1.166-.707 2.332-1.055 3.61-1.055 2.567 0 4.9 1.403 6.412 3.75.785 1.088 1.66.347 1.861 0 1.435-2.47 3.958-3.75 6.413-3.75 2.432 0 4.663 1.268 6.176 3.401v23.868c0 1.056-1.825 1.988-2.868 1.988-1.042 0-3.308-.932-3.308-1.987v-1.988c0-.707-.471-1.167-1.166-1.167s-1.166.471-1.166 1.167v1.987c0 2.347 3.308 4.334 5.64 4.334s5.2-1.987 5.2-4.334V49.832c1.614-2.144 3.845-3.424 6.177-3.424 2.567 0 4.899 1.403 6.412 3.75.763 1.111 1.738.359 1.985 0 1.636-2.347 3.957-3.75 6.412-3.75 1.278 0 2.444.348 3.61 1.055 1.782 1.033 1.984-.83 1.502-1.639zm-5.235-1.751c-2.792 0-5.359 1.29-7.343 3.514-1.984-2.223-4.54-3.514-7.343-3.514-2.791 0-5.358 1.29-7.343 3.514-1.984-2.223-4.54-3.514-7.342-3.514-2.792 0-5.359 1.29-7.343 3.514-1.984-2.223-4.54-3.514-7.343-3.514-.695 0-1.278.112-1.984.235 4.663-9.374 13.867-15.335 24.012-15.335 10.134 0 19.35 5.972 24.002 15.335-.695-.123-1.278-.235-1.973-.235z" fill="#fff"/><defs><linearGradient id="paint0_linear_66_606" x1="81.5" y1="18.696" x2="16.813" y2="77.196" gradientUnits="userSpaceOnUse"><stop stop-color="#9EBCFF"/><stop offset="1" stop-color="#00BF96"/></linearGradient><linearGradient id="paint1_linear_66_606" x1="76.5" y1="28.696" x2="11.813" y2="87.196" gradientUnits="userSpaceOnUse"><stop stop-color="#9EBCFF"/><stop offset="1" stop-color="#00BF96"/></linearGradient><linearGradient id="paint2_linear_66_606" x1="94.5" y1="24.696" x2="29.813" y2="83.196" gradientUnits="userSpaceOnUse"><stop stop-color="#9EBCFF"/><stop offset="1" stop-color="#00BF96"/></linearGradient><linearGradient id="paint3_linear_66_606" x1="91.5" y1="15.696" x2="26.813" y2="74.196" gradientUnits="userSpaceOnUse"><stop stop-color="#9EBCFF"/><stop offset="1" stop-color="#00BF96"/></linearGradient><linearGradient id="paint4_linear_66_606" x1="82" y1="24.952" x2="24.5" y2="76.952" gradientUnits="userSpaceOnUse"><stop stop-color="#1A3D8A"/><stop offset="1" stop-color="#00BF96"/></linearGradient></defs></svg>