<svg width="108" height="103" fill="none" xmlns="http://www.w3.org/2000/svg"><circle cx="50" cy="48" r="45" fill="url(#paint0_linear_66_645)" opacity=".25"/><circle cx="45" cy="58" r="45" fill="url(#paint1_linear_66_645)" opacity=".15"/><circle cx="63" cy="54" r="45" fill="url(#paint2_linear_66_645)" opacity=".25"/><circle cx="60" cy="45" r="45" fill="url(#paint3_linear_66_645)" opacity=".15"/><circle cx="54" cy="51" r="40" fill="url(#paint4_linear_66_645)" opacity=".4"/><path d="M54.46 24c-8.615-.006-15.603 6.897-15.609 15.417a15.341 15.341 0 004.56 10.91c2.92 2.9 6.89 4.53 11.028 4.527 8.615.005 15.603-6.897 15.609-15.417.005-8.52-6.974-15.431-15.588-15.437zm7.633 3.692a14.019 14.019 0 015.714 7.224 20.921 20.921 0 00-3.01-2.1c-2.034-1.234-3.54-2.156-2.704-5.124zM43.23 47.931a13.805 13.805 0 01-2.913-8.5 13.844 13.844 0 014.125-9.878c.678 1.843 2.01 2.975 3.23 4.009 1.11.942 2.105 1.79 2.126 2.971 0 .852-.516 1.498-1.107 2.215a7.412 7.412 0 00-1.744 3.111 9.18 9.18 0 00-.075 2.264c.046 1.214.104 2.626-.283 3.511-.35.823-1.248 1.153-3.359.297zm11.208 5.466v-.005c-.576 0-1.151-.034-1.723-.102a2.204 2.204 0 01.774-2.73c.65-.469 2.44.058 4.324.614.974.288 1.969.58 2.914.761a14.19 14.19 0 01-6.289 1.462zm8.449-2.779c-1.178.202-2.96-.325-4.67-.823-2.243-.663-4.374-1.288-5.614-.39a3.445 3.445 0 00-1.494 3.6 14.139 14.139 0 01-6.002-3.095 2.641 2.641 0 002.843-1.7c.512-1.177.45-2.77.416-4.136A8.745 8.745 0 0148.4 42.2a6.236 6.236 0 011.453-2.523c.77-.93 1.46-1.77 1.436-3.153-.034-1.844-1.249-2.881-2.639-4.058-1.19-1.013-2.497-2.132-2.975-3.972a14.161 14.161 0 018.764-3.03 14.19 14.19 0 016.339 1.482c-1.411 4.277.561 5.479 3.233 7.117 1.436.876 3.113 1.893 4.437 3.729a13.943 13.943 0 01-5.56 12.825zm17.208 8.16l-.012-.021a4.145 4.145 0 00-2.403-1.713 4.189 4.189 0 00-2.945.31l-5.61 2.837a4.83 4.83 0 00-2.784-1.868 4.876 4.876 0 00-3.342.385l-7.064 3.58a2.59 2.59 0 01-2.38-.015l-4.814-2.527a11.28 11.28 0 00-11.678.7l-.544-2.565a.86.86 0 00-.38-.548.88.88 0 00-.66-.12L28.69 58.66a.876.876 0 00-.55.374.858.858 0 00-.122.65l3.951 18.622a.86.86 0 00.304.497.88.88 0 00.736.177l6.792-1.446a.875.875 0 00.55-.375.858.858 0 00.122-.649l-.35-1.666 2.32-.495a6.067 6.067 0 012.058-.078l10.913 1.184a9.447 9.447 0 006.459-1.5l17.482-11.6a2.61 2.61 0 001.107-1.64 2.588 2.588 0 00-.368-1.938zM33.502 77.1l-3.589-16.929 5.077-1.082 3.589 16.93-5.077 1.08zm44.88-16.18L60.9 72.521a7.702 7.702 0 01-5.277 1.212L44.709 72.55a7.71 7.71 0 00-2.636.104l-2.313.491-2.307-10.857.598-.412a9.519 9.519 0 019.868-.6l4.814 2.527a4.357 4.357 0 004.001.027l7.066-3.585a3.127 3.127 0 012.285-.21 3.09 3.09 0 011.803 1.403.867.867 0 01-.31 1.19l-9.74 5.713a7.791 7.791 0 01-5.665.887l-8.784-2.077-.407 1.684 8.793 2.078a9.55 9.55 0 006.956-1.083l9.74-5.714a2.61 2.61 0 00.951-.977c.224-.404.335-.86.323-1.32l5.783-2.926a2.418 2.418 0 011.695-.178 2.397 2.397 0 011.386.982l.01.015a.881.881 0 01-.237 1.21z" fill="#fff"/><defs><linearGradient id="paint0_linear_66_645" x1="81.5" y1="18.696" x2="16.813" y2="77.196" gradientUnits="userSpaceOnUse"><stop stop-color="#9EBCFF"/><stop offset="1" stop-color="#00BF96"/></linearGradient><linearGradient id="paint1_linear_66_645" x1="76.5" y1="28.696" x2="11.813" y2="87.196" gradientUnits="userSpaceOnUse"><stop stop-color="#9EBCFF"/><stop offset="1" stop-color="#00BF96"/></linearGradient><linearGradient id="paint2_linear_66_645" x1="94.5" y1="24.696" x2="29.813" y2="83.196" gradientUnits="userSpaceOnUse"><stop stop-color="#9EBCFF"/><stop offset="1" stop-color="#00BF96"/></linearGradient><linearGradient id="paint3_linear_66_645" x1="91.5" y1="15.696" x2="26.813" y2="74.196" gradientUnits="userSpaceOnUse"><stop stop-color="#9EBCFF"/><stop offset="1" stop-color="#00BF96"/></linearGradient><linearGradient id="paint4_linear_66_645" x1="82" y1="24.952" x2="24.5" y2="76.952" gradientUnits="userSpaceOnUse"><stop stop-color="#1A3D8A"/><stop offset="1" stop-color="#00BF96"/></linearGradient></defs></svg>