<svg width="108" height="103" fill="none" xmlns="http://www.w3.org/2000/svg"><circle cx="50" cy="48" r="45" fill="url(#paint0_linear_66_580)" opacity=".25"/><circle cx="45" cy="58" r="45" fill="url(#paint1_linear_66_580)" opacity=".15"/><circle cx="63" cy="54" r="45" fill="url(#paint2_linear_66_580)" opacity=".25"/><circle cx="60" cy="45" r="45" fill="url(#paint3_linear_66_580)" opacity=".15"/><circle cx="54" cy="51" r="40" fill="url(#paint4_linear_66_580)" opacity=".4"/><path stroke="#fff" stroke-width="2" stroke-linecap="round" stroke-linejoin="round" d="M72.543 54.352h6.59m-51.133 0h6.59m3.365-14.839l-4.66-4.66"/><rect x="52.396" y="31.59" width="8.59" height="1.718" rx=".859" transform="rotate(-90 52.396 31.59)" fill="#fff"/><rect x="68.139" y="40.23" width="8.59" height="1.718" rx=".859" transform="rotate(-45 68.139 40.23)" fill="#fff"/><path d="M66.758 69.228H40.496V53.61c0-8.4 6.015-14.948 13.131-14.948 7.117 0 13.131 6.548 13.131 14.948v15.618zm3.922 7.522H35.92v-3.228c0-2.179 1.362-3.438 2.484-3.438h29.792c1.122 0 2.484 1.26 2.484 3.438v3.228z" stroke="#fff" stroke-width="2.5"/><defs><linearGradient id="paint0_linear_66_580" x1="81.5" y1="18.696" x2="16.813" y2="77.196" gradientUnits="userSpaceOnUse"><stop stop-color="#9EBCFF"/><stop offset="1" stop-color="#00BF96"/></linearGradient><linearGradient id="paint1_linear_66_580" x1="76.5" y1="28.696" x2="11.813" y2="87.196" gradientUnits="userSpaceOnUse"><stop stop-color="#9EBCFF"/><stop offset="1" stop-color="#00BF96"/></linearGradient><linearGradient id="paint2_linear_66_580" x1="94.5" y1="24.696" x2="29.813" y2="83.196" gradientUnits="userSpaceOnUse"><stop stop-color="#9EBCFF"/><stop offset="1" stop-color="#00BF96"/></linearGradient><linearGradient id="paint3_linear_66_580" x1="91.5" y1="15.696" x2="26.813" y2="74.196" gradientUnits="userSpaceOnUse"><stop stop-color="#9EBCFF"/><stop offset="1" stop-color="#00BF96"/></linearGradient><linearGradient id="paint4_linear_66_580" x1="82" y1="24.952" x2="24.5" y2="76.952" gradientUnits="userSpaceOnUse"><stop stop-color="#1A3D8A"/><stop offset="1" stop-color="#00BF96"/></linearGradient></defs></svg>