<svg width="108" height="103" fill="none" xmlns="http://www.w3.org/2000/svg"><circle cx="50" cy="48" r="45" fill="url(#paint0_linear_66_624)" opacity=".25"/><circle cx="45" cy="58" r="45" fill="url(#paint1_linear_66_624)" opacity=".15"/><circle cx="63" cy="54" r="45" fill="url(#paint2_linear_66_624)" opacity=".25"/><circle cx="60" cy="45" r="45" fill="url(#paint3_linear_66_624)" opacity=".15"/><circle cx="54" cy="51" r="40" fill="url(#paint4_linear_66_624)" opacity=".4"/><path d="M28.563 66.972l10.66-10.675a1.907 1.907 0 011.358-.564c.355 0 .694.098.99.277l9.84-9.853a.785.785 0 111.11 1.113l-9.797 9.812 2.191 2.194 10.91-10.925-2.192-2.194-1.46 1.462a.785.785 0 01-1.111 0 .788.788 0 010-1.113l1.46-1.462-3.799-3.804-.3.3a1.96 1.96 0 01-1.398.58 1.963 1.963 0 01-1.398-.58l-1.4-1.401a1.969 1.969 0 01-.58-1.4c0-.53.206-1.026.58-1.4l10.743-10.76c.373-.373.87-.579 1.398-.579a1.96 1.96 0 011.397.58l1.4 1.402c.374.374.58.871.58 1.4 0 .529-.206 1.026-.58 1.4l-.3.3 12.011 12.03.3-.302a1.977 1.977 0 012.796 0l1.4 1.403c.374.374.58.87.58 1.4 0 .529-.206 1.026-.58 1.4L64.63 57.77c-.373.374-.87.58-1.397.58a1.962 1.962 0 01-1.398-.58l-1.4-1.402a1.984 1.984 0 010-2.8l.3-.3-3.798-3.805-10.95 10.967c.179.296.276.636.276.992 0 .514-.2.997-.563 1.36L35.04 73.46a1.907 1.907 0 01-1.358.563c-.513 0-.996-.2-1.359-.563l-3.76-3.766a1.913 1.913 0 01-.562-1.36c0-.514.2-.998.563-1.361zm29.491-37.877l-1.4-1.402a.402.402 0 00-.573 0L45.338 38.452a.403.403 0 000 .573l1.4 1.402c.153.154.42.154.573 0L58.054 29.67a.404.404 0 000-.574zm3.491 26.161l1.4 1.402c.153.153.42.153.573 0L74.261 45.9a.403.403 0 000-.573l-1.4-1.402a.403.403 0 00-.573 0L61.545 54.682a.407.407 0 000 .574zm-4.054-7.461l4.355 4.36 7.919-7.93-12.011-12.029-7.92 7.93 4.354 4.36.001.001 3.302 3.308zM29.674 68.58l3.76 3.765a.347.347 0 00.494 0l10.66-10.675a.349.349 0 000-.495l-.229-.23-3.53-3.535a.347.347 0 00-.495 0l-10.66 10.675a.349.349 0 000 .495z" fill="#fff"/><path d="M49.986 69.023h1.204v-4.147c0-.926.752-1.678 1.676-1.678h19.379a.786.786 0 010 1.574h-19.38a.104.104 0 00-.103.104v4.147h20.882v-4.147a.104.104 0 00-.103-.104h-2.19a.786.786 0 010-1.574h2.19c.924 0 1.675.752 1.675 1.678v4.147h1.204a3.42 3.42 0 013.414 3.42v2.24c0 .726-.59 1.317-1.315 1.317H47.887c-.725 0-1.315-.59-1.315-1.317v-2.24a3.42 3.42 0 013.414-3.42zm-1.842 5.403h30.118v-1.984a1.846 1.846 0 00-1.842-1.844H49.986a1.846 1.846 0 00-1.842 1.844v1.984z" fill="#fff"/><defs><linearGradient id="paint0_linear_66_624" x1="81.5" y1="18.696" x2="16.813" y2="77.196" gradientUnits="userSpaceOnUse"><stop stop-color="#9EBCFF"/><stop offset="1" stop-color="#00BF96"/></linearGradient><linearGradient id="paint1_linear_66_624" x1="76.5" y1="28.696" x2="11.813" y2="87.196" gradientUnits="userSpaceOnUse"><stop stop-color="#9EBCFF"/><stop offset="1" stop-color="#00BF96"/></linearGradient><linearGradient id="paint2_linear_66_624" x1="94.5" y1="24.696" x2="29.813" y2="83.196" gradientUnits="userSpaceOnUse"><stop stop-color="#9EBCFF"/><stop offset="1" stop-color="#00BF96"/></linearGradient><linearGradient id="paint3_linear_66_624" x1="91.5" y1="15.696" x2="26.813" y2="74.196" gradientUnits="userSpaceOnUse"><stop stop-color="#9EBCFF"/><stop offset="1" stop-color="#00BF96"/></linearGradient><linearGradient id="paint4_linear_66_624" x1="82" y1="24.952" x2="24.5" y2="76.952" gradientUnits="userSpaceOnUse"><stop stop-color="#1A3D8A"/><stop offset="1" stop-color="#00BF96"/></linearGradient></defs></svg>