<svg width="108" height="103" fill="none" xmlns="http://www.w3.org/2000/svg"><circle cx="50" cy="48" r="45" fill="url(#paint0_linear_66_525)" opacity=".25"/><circle cx="45" cy="58" r="45" fill="url(#paint1_linear_66_525)" opacity=".15"/><circle cx="63" cy="54" r="45" fill="url(#paint2_linear_66_525)" opacity=".25"/><circle cx="60" cy="45" r="45" fill="url(#paint3_linear_66_525)" opacity=".15"/><path opacity=".45" d="M94 51c0 22.091-17.909 40-40 40S14 73.091 14 51s17.909-40 40-40 40 17.909 40 40z" fill="url(#paint4_linear_66_525)"/><path d="M40.422 66.401c-.283-3.094-1.707-5.359-3.152-7.681-2.858-4.534-5.885-9.337.946-21.636a.961.961 0 00-.4-1.298.961.961 0 00-1.308.373c-7.387 13.288-4.045 18.578-.893 23.586 1.34 2.101 2.627 4.203 2.89 6.83a.963.963 0 101.917-.174zM63.635 37.12a8.827 8.827 0 01-1.282 2.344A6.667 6.667 0 0158.433 42c-1.67.363-3.677.137-5.968-.898-3.315-1.497-7.177-4.64-11.422-10.046 2.416-.247 6.71-1.024 9.909-3.457 2.706-2.06 5.149-2.816 7.172-2.627.869.07 1.712.33 2.469.762a6.432 6.432 0 011.918 1.702 8.883 8.883 0 011.607 3.83 15.35 15.35 0 012.023.526 11.113 11.113 0 00-2.101-5.543 8.358 8.358 0 00-2.507-2.212 7.839 7.839 0 00-3.273-1.009c-2.47-.205-5.37.662-8.496 3.042-3.92 2.98-9.82 3.152-10.545 3.152a.967.967 0 00-.84 1.54c4.918 6.573 9.42 10.324 13.287 12.084 2.701 1.214 5.113 1.471 7.167 1.051a8.564 8.564 0 005.05-3.273 10.778 10.778 0 001.528-2.811l-.152-.074a10.443 10.443 0 00-1.624-.62z" fill="#fff"/><path d="M77.58 45.438c-7.83-13.046-14.082-12.804-19.992-12.573-2.512.1-4.955.194-7.356-.914a.961.961 0 00-.81 1.733c2.822 1.298 5.491 1.198 8.234 1.088 5.359-.189 11.033-.41 18.268 11.654a.964.964 0 001.655-.988zM47.226 59.876c-.294-2.943-1.282-5.16-2.695-6.72a8.57 8.57 0 00-5.343-2.743 10.756 10.756 0 00-3.195.079v.168c.046.585.14 1.165.284 1.734a8.854 8.854 0 012.664-.074 6.662 6.662 0 014.156 2.102c1.145 1.266 1.954 3.116 2.206 5.616.363 3.615-.425 8.528-2.973 14.933-1.424-1.976-4.246-5.307-7.95-6.862-3.152-1.32-5.017-3.048-5.88-4.881a5.914 5.914 0 01-.593-2.496 6.448 6.448 0 01.526-2.517 8.897 8.897 0 012.511-3.31 15.346 15.346 0 01-.525-2.028 11.1 11.1 0 00-3.752 4.592A8.344 8.344 0 0026 60.732a7.85 7.85 0 00.762 3.342c1.05 2.243 3.263 4.324 6.877 5.842 4.824 2.018 8.029 7.54 8.06 7.597a.962.962 0 001.724-.105c3.23-7.54 4.229-13.313 3.803-17.532zm27.356-1.789a.963.963 0 00-1.343-.234c-2.537 1.792-3.782 4.161-5.065 6.594-2.5 4.729-5.143 9.767-19.208 9.983a.962.962 0 10.031 1.923c15.21-.252 18.127-5.78 20.885-11.034 1.166-2.212 2.307-4.376 4.466-5.89a.963.963 0 00.234-1.342z" fill="#fff"/><path d="M81.842 49.835a.967.967 0 00-.59-.12l.026.025c-8.15.967-13.65 2.995-17.118 5.486-2.4 1.728-3.83 3.678-4.471 5.69a8.564 8.564 0 00.294 5.995 10.76 10.76 0 001.671 2.727l.137-.095c.484-.332.939-.705 1.36-1.114a8.848 8.848 0 01-1.392-2.26 6.666 6.666 0 01-.226-4.675c.526-1.629 1.718-3.247 3.762-4.729 2.948-2.102 7.592-3.893 14.412-4.886-.993 2.222-2.47 6.305-1.96 10.308.431 3.379-.131 5.87-1.292 7.54a5.916 5.916 0 01-1.892 1.755c-.75.43-1.579.706-2.438.809a8.895 8.895 0 01-4.124-.525 15.282 15.282 0 01-1.487 1.476c1.827.84 3.848 1.17 5.848.95a8.36 8.36 0 003.152-1.05 7.844 7.844 0 002.512-2.333c1.413-2.038 2.101-4.98 1.618-8.874-.662-5.201 2.548-10.765 2.559-10.781a.967.967 0 00-.36-1.32z" fill="#fff"/><defs><linearGradient id="paint0_linear_66_525" x1="81.5" y1="18.696" x2="16.813" y2="77.196" gradientUnits="userSpaceOnUse"><stop stop-color="#9EBCFF"/><stop offset="1" stop-color="#00BF96"/></linearGradient><linearGradient id="paint1_linear_66_525" x1="76.5" y1="28.696" x2="11.813" y2="87.196" gradientUnits="userSpaceOnUse"><stop stop-color="#9EBCFF"/><stop offset="1" stop-color="#00BF96"/></linearGradient><linearGradient id="paint2_linear_66_525" x1="94.5" y1="24.696" x2="29.813" y2="83.196" gradientUnits="userSpaceOnUse"><stop stop-color="#9EBCFF"/><stop offset="1" stop-color="#00BF96"/></linearGradient><linearGradient id="paint3_linear_66_525" x1="91.5" y1="15.696" x2="26.813" y2="74.196" gradientUnits="userSpaceOnUse"><stop stop-color="#9EBCFF"/><stop offset="1" stop-color="#00BF96"/></linearGradient><linearGradient id="paint4_linear_66_525" x1="82" y1="24.952" x2="24.5" y2="76.952" gradientUnits="userSpaceOnUse"><stop stop-color="#1A3D8A"/><stop offset="1" stop-color="#00BF96"/></linearGradient></defs></svg>