<svg width="69" height="70" fill="none" xmlns="http://www.w3.org/2000/svg"><path d="M25.985 19.736a1.75 1.75 0 10.002-3.502 1.75 1.75 0 00-.002 3.502z" fill="url(#paint0_linear_66_389)"/><path d="M15.864 35.146c.097 0 .243 0 .34-.049.049 0 .098-.048.146-.048.049 0 .146-.049.195-.049.048 0 .097-.048.146-.097.049 0 .097-.049.097-.049a.67.67 0 01.195-.145l.049-.05.194-.194.049-.048c.048-.097.097-.146.146-.243a2.74 2.74 0 00.194-.584 17.3 17.3 0 015.45-11.326c.438-.34.73-.875.73-1.458 0-.973-.778-1.75-1.751-1.75-.438 0-.828.146-1.12.437A20.697 20.697 0 0014.112 33.3v.097c0 .924.778 1.75 1.752 1.75z" fill="url(#paint1_linear_66_389)"/><path d="M58.734 44.625c-.68 0-1.265.389-1.557.924h-.048C53.187 53.813 44.769 59.5 34.988 59.5 21.46 59.5 10.462 48.514 10.462 35S21.46 10.5 34.988 10.5c9.1 0 17.08 4.958 21.313 12.347.292.584.876.924 1.557.924.974 0 1.752-.778 1.752-1.75 0-.34-.097-.68-.292-.924l-.584-.972c-.194-.292-.389-.583-.584-.924C53.09 11.812 44.623 7 34.988 7 19.513 7 6.958 19.542 6.958 35s12.555 28 28.03 28c10.851 0 20.243-6.174 24.914-15.167.097-.145.146-.291.243-.437 0-.049.05-.049.05-.097-.05.145 0 0 .048-.146 0-.049.048-.097.048-.097.05-.146.098-.243 0-.05.05-.194.098-.388.098-.582.097-1.021-.681-1.799-1.655-1.799z" fill="url(#paint2_linear_66_389)"/><path d="M68.077 46.375c0-.972-.778-1.75-1.751-1.75-.682 0-1.266.389-1.558.924l-.048.097C60.34 57.799 48.71 66.45 35.036 66.45c-17.42 0-31.532-14.097-31.532-31.5 0-17.4 14.16-31.45 31.532-31.45 12.993 0 24.136 7.826 28.954 19.056a1.721 1.721 0 001.654 1.263c.974 0 1.752-.777 1.752-1.75 0-.194-.049-.388-.097-.583-.34-.924-.146-.437-.536-1.312-.145-.243-.243-.535-.389-.778A34.857 34.857 0 0035.036 0C15.67 0 0 15.653 0 35s15.669 35 35.036 35c14.453 0 26.861-8.75 32.214-21.243.438-1.02.39-.73.73-1.799.049-.194.097-.389.097-.583z" fill="url(#paint3_linear_66_389)"/><defs><linearGradient id="paint0_linear_66_389" x1="-.269" y1="49.139" x2="42.747" y2="-2.031" gradientUnits="userSpaceOnUse"><stop stop-color="#00C095"/><stop offset="1" stop-color="#00FEE4"/></linearGradient><linearGradient id="paint1_linear_66_389" x1="-.119" y1="49.595" x2="42.897" y2="-1.574" gradientUnits="userSpaceOnUse"><stop stop-color="#00C095"/><stop offset="1" stop-color="#00FEE4"/></linearGradient><linearGradient id="paint2_linear_66_389" x1="13.274" y1="60.854" x2="56.29" y2="9.684" gradientUnits="userSpaceOnUse"><stop stop-color="#00BF96"/><stop offset="1" stop-color="#00FEE4"/></linearGradient><linearGradient id="paint3_linear_66_389" x1="13.275" y1="60.854" x2="56.291" y2="9.685" gradientUnits="userSpaceOnUse"><stop stop-color="#00BF96"/><stop offset="1" stop-color="#00FEE4"/></linearGradient></defs></svg>