<svg width="211" height="70" fill="none" xmlns="http://www.w3.org/2000/svg"><path d="M25.985 19.736a1.75 1.75 0 10.002-3.502 1.75 1.75 0 00-.002 3.502z" fill="url(#paint0_linear_66_396)"/><path d="M15.864 35.146c.097 0 .243 0 .34-.049.049 0 .098-.048.146-.048.049 0 .146-.049.195-.049.049 0 .097-.049.146-.097.049 0 .097-.049.097-.049.049-.048.098-.097.195-.146l.049-.048.194-.195.049-.048c.049-.098.097-.146.146-.243a2.74 2.74 0 00.194-.584 17.3 17.3 0 015.45-11.326c.438-.34.73-.875.73-1.459 0-.972-.778-1.75-1.751-1.75-.438 0-.828.146-1.12.438a20.697 20.697 0 00-6.812 13.806v.097c0 .923.778 1.75 1.752 1.75z" fill="url(#paint1_linear_66_396)"/><path d="M58.734 44.625c-.68 0-1.265.389-1.557.923h-.048C53.187 53.813 44.769 59.5 34.988 59.5 21.46 59.5 10.462 48.514 10.462 35S21.46 10.5 34.988 10.5c9.1 0 17.08 4.958 21.313 12.347.292.583.876.924 1.557.924.974 0 1.752-.778 1.752-1.75 0-.34-.097-.68-.292-.924l-.584-.972c-.194-.292-.389-.584-.584-.924C53.09 11.812 44.623 7 34.988 7 19.513 7 6.958 19.54 6.958 35c0 15.458 12.555 28 28.03 28 10.851 0 20.243-6.174 24.914-15.167.097-.146.146-.291.243-.437 0-.049.05-.049.05-.098-.05.146 0 0 .048-.145 0-.049.048-.098.048-.098.05-.145.098-.243 0-.048.05-.195.098-.39.098-.584.097-1.02-.681-1.798-1.655-1.798z" fill="url(#paint2_linear_66_396)"/><path d="M68.077 46.375c0-.972-.778-1.75-1.751-1.75-.682 0-1.266.389-1.558.924l-.048.097C60.34 57.799 48.71 66.45 35.036 66.45c-17.42 0-31.532-14.097-31.532-31.5 0-17.4 14.16-31.45 31.532-31.45 12.993 0 24.136 7.826 28.954 19.056a1.721 1.721 0 001.654 1.263c.974 0 1.752-.777 1.752-1.75 0-.194-.049-.388-.097-.583-.34-.924-.146-.437-.536-1.312-.145-.243-.243-.535-.389-.778A34.857 34.857 0 0035.036 0C15.67 0 0 15.653 0 35s15.669 35 35.036 35c14.453 0 26.861-8.75 32.214-21.243.438-1.02.39-.73.73-1.799.049-.194.097-.389.097-.583z" fill="url(#paint3_linear_66_396)"/><path d="M44 30v12h-2.2V28h6.94v14H46.5V30H44zm8.555 1.22v7.56c0 .92.38 1.38 1.14 1.38.76 0 1.14-.46 1.14-1.38v-7.56c0-.92-.38-1.38-1.14-1.38-.76 0-1.14.46-1.14 1.38zm-2.2 7.42v-7.28c0-1.12.287-1.987.86-2.6s1.4-.92 2.48-.92 1.907.307 2.48.92c.574.613.86 1.48.86 2.6v7.28c0 1.12-.286 1.987-.86 2.6-.573.613-1.4.92-2.48.92s-1.907-.307-2.48-.92-.86-1.48-.86-2.6zm16.85 5.24h-2.18V42h-4.7v1.88h-2.14v-3.84h.86c.32-.4.5-1.007.54-1.82l.5-10.22h6.16v12.04h.96v3.84zM62.145 30l-.4 8.18c-.053.893-.26 1.513-.62 1.86h2.88V30h-1.86zm5.845 0v-2h6.8v2h-2.3v12h-2.2V30h-2.3zm11.29-2c1.133 0 1.96.267 2.48.8.52.52.78 1.327.78 2.42v.5c0 1.44-.474 2.38-1.42 2.82 1.093.427 1.64 1.427 1.64 3v1.14c0 1.08-.287 1.907-.86 2.48-.56.56-1.387.84-2.48.84h-3.46V28h3.32zm-.14 7.7h-.98V40h1.26c.386 0 .673-.1.86-.3.186-.213.28-.573.28-1.08V37.4c0-.64-.114-1.08-.34-1.32-.214-.253-.574-.38-1.08-.38zm.08-5.7h-1.06v3.7h.86c.44 0 .766-.113.98-.34.226-.227.34-.607.34-1.14v-.78c0-.96-.374-1.44-1.12-1.44zm7.264 0v3.9h3.02v2h-3.02V40h3.8v2h-6V28h6v2h-3.8zm8.604-2c2.186 0 3.28 1.153 3.28 3.46v1.82c0 2.307-1.094 3.46-3.28 3.46h-1.04V42h-2.2V28h3.24zm0 2h-1.04v4.74h1.04c.36 0 .626-.1.8-.3.186-.2.28-.54.28-1.02v-2.1c0-.48-.094-.82-.28-1.02-.174-.2-.44-.3-.8-.3zm10.839-2v5.66l2.6-5.66h2.2l-2.7 5.68 2.7 8.32h-2.26l-2-6.2-.54 1.06V42h-2.18v-5.14l-.54-1.08-2 6.22h-2.26l2.72-8.26-2.72-5.74h2.2l2.6 5.66V28h2.18zm14.47 15.88h-2.18V42h-4.7v1.88h-2.14v-3.84h.86c.32-.4.5-1.007.54-1.82l.5-10.22h6.16v12.04h.96v3.84zM115.337 30l-.4 8.18c-.053.893-.26 1.513-.62 1.86h2.88V30h-1.86zm8.686 0v3.9h3.02v2h-3.02V40h3.8v2h-6V28h6v2h-3.8zm7.563 6v6h-2.2V28h2.2v6h2.5v-6h2.24v14h-2.24v-6h-2.5zm10.635-.42l-1.84 6.42h-2.26V28h1.96v8.86l.8-3.08 1.8-5.78h2.42v14h-1.98v-9.86l-.9 3.44zm6.835-5.58v3.9h3.02v2h-3.02V40h3.8v2h-6V28h6v2h-3.8zm15.909-2l-2.36 10.44c-.28 1.36-.727 2.32-1.34 2.88-.613.56-1.647.793-3.1.7v-1.96c.6.04 1.053-.02 1.36-.18.307-.16.5-.48.58-.96l.02-.12-3.04-10.8h2.18l1.2 4.78.68 3.28.52-3.26 1-4.8h2.3zm11.524 0v12.04h.98v3.84h-2.14V42h-9.24V28h2.2v12h1.9V28h2.2v12h1.9V28h2.2zm4.578 2v3.9h3.02v2h-3.02V40h3.8v2h-6V28h6v2h-3.8zm8.603-2c2.187 0 3.28 1.153 3.28 3.46v1.82c0 2.307-1.093 3.46-3.28 3.46h-1.04V42h-2.2V28h3.24zm0 2h-1.04v4.74h1.04c.36 0 .627-.1.8-.3.187-.2.28-.54.28-1.02v-2.1c0-.48-.093-.82-.28-1.02-.173-.2-.44-.3-.8-.3zm8 12h-3.48V28h6.16v2h-3.96v3.58h1.28c1.093 0 1.92.3 2.48.9.56.587.84 1.44.84 2.56v1.5c0 1.12-.28 1.98-.84 2.58-.56.587-1.387.88-2.48.88zm-1.28-2h1.28c.746 0 1.12-.44 1.12-1.32V36.9c0-.88-.374-1.32-1.12-1.32h-1.28V40zm11.16-12l2.24 14h-2.22l-.38-2.54h-2.7l-.38 2.54h-2.02l2.24-14h3.22zm-1.72 2.48l-1.06 7.08h2.12l-1.06-7.08z" fill="#212121"/><defs><linearGradient id="paint0_linear_66_396" x1="-.269" y1="49.139" x2="42.747" y2="-2.031" gradientUnits="userSpaceOnUse"><stop stop-color="#00C095"/><stop offset="1" stop-color="#00FEE4"/></linearGradient><linearGradient id="paint1_linear_66_396" x1="-.119" y1="49.595" x2="42.897" y2="-1.575" gradientUnits="userSpaceOnUse"><stop stop-color="#00C095"/><stop offset="1" stop-color="#00FEE4"/></linearGradient><linearGradient id="paint2_linear_66_396" x1="13.274" y1="60.853" x2="56.29" y2="9.684" gradientUnits="userSpaceOnUse"><stop stop-color="#00BF96"/><stop offset="1" stop-color="#00FEE4"/></linearGradient><linearGradient id="paint3_linear_66_396" x1="13.275" y1="60.854" x2="56.291" y2="9.685" gradientUnits="userSpaceOnUse"><stop stop-color="#00BF96"/><stop offset="1" stop-color="#00FEE4"/></linearGradient></defs></svg>