<svg width="179" height="70" fill="none" xmlns="http://www.w3.org/2000/svg"><path d="M25.985 19.736a1.75 1.75 0 10.002-3.502 1.75 1.75 0 00-.002 3.502z" fill="url(#paint0_linear_66_388)"/><path d="M15.864 35.146c.097 0 .243 0 .34-.049.049 0 .098-.048.146-.048.049 0 .146-.049.195-.049.048 0 .097-.048.146-.097.049 0 .097-.049.097-.049a.67.67 0 01.195-.145l.049-.05.194-.194.049-.048c.048-.097.097-.146.146-.243a2.74 2.74 0 00.194-.584 17.3 17.3 0 015.45-11.326c.438-.34.73-.875.73-1.458 0-.973-.778-1.75-1.751-1.75-.438 0-.828.146-1.12.437A20.697 20.697 0 0014.112 33.3v.097c0 .924.778 1.75 1.752 1.75z" fill="url(#paint1_linear_66_388)"/><path d="M58.734 44.625c-.68 0-1.265.389-1.557.924h-.048C53.187 53.813 44.769 59.5 34.988 59.5 21.46 59.5 10.462 48.514 10.462 35S21.46 10.5 34.988 10.5c9.1 0 17.08 4.958 21.313 12.347.292.584.876.924 1.557.924.974 0 1.752-.778 1.752-1.75 0-.34-.097-.68-.292-.924l-.584-.972c-.194-.292-.389-.583-.584-.924C53.09 11.812 44.623 7 34.988 7 19.513 7 6.958 19.542 6.958 35s12.555 28 28.03 28c10.851 0 20.243-6.174 24.914-15.167.097-.145.146-.291.243-.437 0-.049.05-.049.05-.097-.05.145 0 0 .048-.146 0-.049.048-.097.048-.097.05-.146.098-.243 0-.05.05-.194.098-.388.098-.582.097-1.021-.681-1.799-1.655-1.799z" fill="url(#paint2_linear_66_388)"/><path d="M68.077 46.375c0-.972-.778-1.75-1.751-1.75-.682 0-1.266.389-1.558.924l-.048.097C60.34 57.799 48.71 66.45 35.036 66.45c-17.42 0-31.532-14.097-31.532-31.5 0-17.4 14.16-31.45 31.532-31.45 12.993 0 24.136 7.826 28.954 19.056a1.721 1.721 0 001.654 1.263c.974 0 1.752-.777 1.752-1.75 0-.194-.049-.388-.097-.583-.34-.924-.146-.437-.536-1.312-.145-.243-.243-.535-.389-.778A34.857 34.857 0 0035.036 0C15.67 0 0 15.653 0 35s15.669 35 35.036 35c14.453 0 26.861-8.75 32.214-21.243.438-1.02.39-.73.73-1.799.049-.194.097-.389.097-.583z" fill="url(#paint3_linear_66_388)"/><path d="M45.82 31.22v7.56c0 .92.38 1.38 1.14 1.38.76 0 1.14-.46 1.14-1.38v-7.56c0-.92-.38-1.38-1.14-1.38-.76 0-1.14.46-1.14 1.38zm-2.2 7.42v-7.28c0-1.12.287-1.987.86-2.6s1.4-.92 2.48-.92 1.907.307 2.48.92.86 1.48.86 2.6v7.28c0 1.12-.287 1.987-.86 2.6s-1.4.92-2.48.92-1.907-.307-2.48-.92-.86-1.48-.86-2.6zM54.13 30v12h-2.2V28h6.94v14h-2.24V30h-2.5zm9.775-2c2.186 0 3.28 1.153 3.28 3.46v1.82c0 2.307-1.094 3.46-3.28 3.46h-1.04V42h-2.2V28h3.24zm0 2h-1.04v4.74h1.04c.36 0 .626-.1.8-.3.186-.2.28-.54.28-1.02v-2.1c0-.48-.094-.82-.28-1.02-.174-.2-.44-.3-.8-.3zm6.699 0v3.9h3.02v2h-3.02V40h3.8v2h-6V28h6v2h-3.8zm13.903 13.88h-2.18V42h-4.7v1.88h-2.14v-3.84h.86c.32-.4.5-1.007.54-1.82l.5-10.22h6.16v12.04h.96v3.84zM79.447 30l-.4 8.18c-.053.893-.26 1.513-.62 1.86h2.88V30h-1.86zm8.686 0v3.9h3.02v2h-3.02V40h3.8v2h-6V28h6v2h-3.8zm4.743 12.02v-2c.533 0 .887-.08 1.06-.24.187-.173.287-.573.3-1.2l.36-10.58h6.22v14h-2.24V30h-1.92l-.24 8.46c-.04 1.28-.307 2.193-.8 2.74-.493.547-1.293.82-2.4.82h-.34zM104.9 30v3.9h3.02v2h-3.02V40h3.8v2h-6V28h6v2h-3.8zm7.563 6v6h-2.2V28h2.2v6h2.5v-6h2.24v14h-2.24v-6h-2.5zm10.635-.42l-1.84 6.42h-2.26V28h1.96v8.86l.8-3.08 1.8-5.78h2.42v14h-1.98v-9.86l-.9 3.44zm6.836-5.58v3.9h3.02v2h-3.02V40h3.8v2h-6V28h6v2h-3.8zm17.208 13.88h-2.18V42h-4.7v1.88h-2.14v-3.84h.86c.32-.4.5-1.007.54-1.82l.5-10.22h6.16v12.04h.96v3.84zM142.082 30l-.4 8.18c-.053.893-.26 1.513-.62 1.86h2.88V30h-1.86zm11.366-2l2.24 14h-2.22l-.38-2.54h-2.7l-.38 2.54h-2.02l2.24-14h3.22zm-1.72 2.48l-1.06 7.08h2.12l-1.06-7.08zm4.545-.48v-2h6.8v2h-2.3v12h-2.2V30h-2.3z" fill="#212121"/><defs><linearGradient id="paint0_linear_66_388" x1="-.269" y1="49.139" x2="42.747" y2="-2.031" gradientUnits="userSpaceOnUse"><stop stop-color="#00C095"/><stop offset="1" stop-color="#00FEE4"/></linearGradient><linearGradient id="paint1_linear_66_388" x1="-.119" y1="49.595" x2="42.897" y2="-1.574" gradientUnits="userSpaceOnUse"><stop stop-color="#00C095"/><stop offset="1" stop-color="#00FEE4"/></linearGradient><linearGradient id="paint2_linear_66_388" x1="13.274" y1="60.854" x2="56.29" y2="9.684" gradientUnits="userSpaceOnUse"><stop stop-color="#00BF96"/><stop offset="1" stop-color="#00FEE4"/></linearGradient><linearGradient id="paint3_linear_66_388" x1="13.275" y1="60.854" x2="56.291" y2="9.685" gradientUnits="userSpaceOnUse"><stop stop-color="#00BF96"/><stop offset="1" stop-color="#00FEE4"/></linearGradient></defs></svg>