<svg width="109" height="16" fill="none" xmlns="http://www.w3.org/2000/svg"><path d="M.52 9.98H2.6v1.8c0 .907.38 1.36 1.14 1.36.76 0 1.14-.453 1.14-1.36V8.76H2.86v-2h2.02V4.22c0-.92-.38-1.38-1.14-1.38-.76 0-1.14.46-1.14 1.38v1.32H.56V4.36c0-1.133.273-2 .82-2.6.547-.613 1.353-.92 2.42-.92s1.88.307 2.44.92c.56.6.84 1.467.84 2.6v7.28c0 1.133-.28 2.007-.84 2.62-.56.6-1.373.9-2.44.9s-1.88-.3-2.44-.9c-.56-.613-.84-1.487-.84-2.62V9.98zM13.735 15l-2.14-5.58-.68 1.28V15h-2.2V1h2.2v6.1l2.88-6.1h2.2l-3.06 6.24 3.06 7.76h-2.26zm5.481-10.78v7.56c0 .92.38 1.38 1.14 1.38.76 0 1.14-.46 1.14-1.38V4.22c0-.92-.38-1.38-1.14-1.38-.76 0-1.14.46-1.14 1.38zm-2.2 7.42V4.36c0-1.12.287-1.987.86-2.6s1.4-.92 2.48-.92 1.907.307 2.48.92.86 1.48.86 2.6v7.28c0 1.12-.287 1.987-.86 2.6s-1.4.92-2.48.92-1.907-.307-2.48-.92-.86-1.48-.86-2.6zM28.366 1l1.62 9.94 1.5-9.94h3.06v14h-2.08V4.96L30.946 15h-2.08l-1.64-9.9V15h-1.92V1h3.06zm10 3.22v7.56c0 .92.38 1.38 1.14 1.38.76 0 1.14-.46 1.14-1.38V4.22c0-.92-.38-1.38-1.14-1.38-.76 0-1.14.46-1.14 1.38zm-2.2 7.42V4.36c0-1.12.287-1.987.86-2.6s1.4-.92 2.48-.92 1.907.307 2.48.92.86 1.48.86 2.6v7.28c0 1.12-.287 1.987-.86 2.6s-1.4.92-2.48.92-1.907-.307-2.48-.92-.86-1.48-.86-2.6zM46.676 9v6h-2.2V1h2.2v6h2.5V1h2.24v14h-2.24V9h-2.5zm10.635-.42L55.47 15h-2.26V1h1.96v8.86l.8-3.08L57.77 1h2.42v14h-1.98V5.14l-.9 3.44zM61.306 3V1h6.8v2h-2.3v12h-2.2V3h-2.3zm9.989 1.22v7.56c0 .92.38 1.38 1.14 1.38.76 0 1.14-.46 1.14-1.38V4.22c0-.92-.38-1.38-1.14-1.38-.76 0-1.14.46-1.14 1.38zm-2.2 7.42V4.36c0-1.12.287-1.987.86-2.6s1.4-.92 2.48-.92 1.907.307 2.48.92.86 1.48.86 2.6v7.28c0 1.12-.287 1.987-.86 2.6s-1.4.92-2.48.92-1.907-.307-2.48-.92-.86-1.48-.86-2.6zM80.645 1c2.186 0 3.28 1.153 3.28 3.46v1.82c0 2.307-1.094 3.46-3.28 3.46h-1.04V15h-2.2V1h3.24zm0 2h-1.04v4.74h1.04c.36 0 .626-.1.8-.3.186-.2.28-.54.28-1.02v-2.1c0-.48-.094-.82-.28-1.02-.174-.2-.44-.3-.8-.3zm8.599 5.58L87.404 15h-2.26V1h1.96v8.86l.8-3.08 1.8-5.78h2.42v14h-1.98V5.14l-.9 3.44zm6.835.42v6h-2.2V1h2.2v6h2.5V1h2.24v14h-2.24V9h-2.5zm8.755 6h-2.2V1h5.8v2h-3.6v12z" fill="#212121"/></svg>