<svg width="229" height="70" fill="none" xmlns="http://www.w3.org/2000/svg"><path d="M25.985 19.736a1.751 1.751 0 10.002-3.502 1.751 1.751 0 00-.002 3.502z" fill="url(#paint0_linear_66_412)"/><path d="M15.864 35.146c.097 0 .243 0 .34-.049.049 0 .098-.048.146-.048.049 0 .146-.049.195-.049.049 0 .097-.049.146-.097.049 0 .097-.049.097-.049.049-.048.098-.097.195-.146l.049-.048.194-.195.049-.048c.049-.098.097-.146.146-.243a2.74 2.74 0 00.194-.584 17.3 17.3 0 015.45-11.326c.438-.34.73-.875.73-1.458 0-.973-.778-1.75-1.751-1.75-.438 0-.828.145-1.12.437A20.697 20.697 0 0014.112 33.3v.097c0 .923.778 1.75 1.752 1.75z" fill="url(#paint1_linear_66_412)"/><path d="M58.734 44.625c-.68 0-1.265.389-1.557.923h-.048C53.187 53.813 44.769 59.5 34.988 59.5 21.46 59.5 10.462 48.514 10.462 35S21.46 10.5 34.988 10.5c9.1 0 17.08 4.958 21.313 12.347.292.583.876.924 1.557.924.974 0 1.752-.778 1.752-1.75 0-.34-.097-.68-.292-.924l-.584-.972c-.194-.292-.389-.583-.584-.924C53.09 11.812 44.623 7 34.988 7 19.513 7 6.958 19.542 6.958 35s12.555 28 28.03 28c10.851 0 20.243-6.174 24.914-15.167.098-.146.146-.291.243-.437 0-.049.05-.049.05-.098-.05.146 0 0 .048-.145 0-.049.048-.097.048-.097.05-.146.098-.244 0-.05.05-.194.098-.388.098-.583.097-1.02-.681-1.798-1.655-1.798z" fill="url(#paint2_linear_66_412)"/><path d="M68.077 46.375c0-.972-.778-1.75-1.751-1.75-.682 0-1.266.389-1.558.924l-.048.097C60.34 57.799 48.71 66.45 35.036 66.45c-17.42 0-31.532-14.097-31.532-31.5 0-17.4 14.16-31.45 31.532-31.45 12.993 0 24.136 7.826 28.954 19.056a1.721 1.721 0 001.654 1.263c.974 0 1.752-.777 1.752-1.75 0-.194-.049-.388-.097-.583-.34-.924-.146-.437-.536-1.312-.145-.243-.243-.535-.389-.778A34.857 34.857 0 0035.036 0C15.67 0 0 15.653 0 35s15.669 35 35.036 35c14.453 0 26.861-8.75 32.214-21.243.438-1.02.39-.73.73-1.799.049-.194.097-.389.097-.583z" fill="url(#paint3_linear_66_412)"/><path d="M46 36v6h-2.2V28H46v6h2.5v-6h2.24v14H48.5v-6H46zm8.735-6v3.9h3.02v2h-3.02V40h3.8v2h-6V28h6v2h-3.8zm9.603 2.22v-.78c0-.6-.1-1.013-.3-1.24-.186-.24-.466-.36-.84-.36-.773 0-1.16.46-1.16 1.38v1.14h-2.02v-1.04c0-1.133.274-1.993.82-2.58.547-.6 1.354-.9 2.42-.9 1.067 0 1.88.307 2.44.92.56.6.84 1.467.84 2.6v.36c0 1.493-.513 2.453-1.54 2.88 1.027.453 1.54 1.433 1.54 2.94v1.1c0 1.133-.28 2.007-.84 2.62-.56.6-1.373.9-2.44.9-1.066 0-1.88-.3-2.44-.9-.56-.613-.84-1.487-.84-2.62V37.1h2.08v1.68c0 .92.38 1.38 1.14 1.38.374 0 .654-.113.84-.34.2-.24.3-.653.3-1.24v-1.1c0-.64-.113-1.093-.34-1.36-.226-.28-.593-.42-1.1-.42h-.54v-2h.66c.44 0 .767-.113.98-.34.227-.227.34-.607.34-1.14zm8.77-4.22l2.24 14h-2.22l-.38-2.54h-2.7l-.38 2.54h-2.02l2.24-14h3.22zm-1.72 2.48l-1.06 7.08h2.12l-1.06-7.08zM81.593 42l-2.14-5.58-.68 1.28V42h-2.2V28h2.2v6.1l2.88-6.1h2.2l-3.06 6.24 3.06 7.76h-2.26zm5.48-10.78v7.56c0 .92.38 1.38 1.14 1.38.76 0 1.14-.46 1.14-1.38v-7.56c0-.92-.38-1.38-1.14-1.38-.76 0-1.14.46-1.14 1.38zm-2.2 7.42v-7.28c0-1.12.288-1.987.86-2.6.574-.613 1.4-.92 2.48-.92s1.908.307 2.48.92c.574.613.86 1.48.86 2.6v7.28c0 1.12-.286 1.987-.86 2.6-.572.613-1.4.92-2.48.92s-1.906-.307-2.48-.92c-.572-.613-.86-1.48-.86-2.6zM95.384 36v6h-2.2V28h2.2v6h2.5v-6h2.241v14h-2.24v-6h-2.5zm8.736 0v6h-2.2V28h2.2v6h2.5v-6h2.24v14h-2.24v-6h-2.5zm11.415-8l2.24 14h-2.22l-.38-2.54h-2.7l-.38 2.54h-2.02l2.24-14h3.22zm-1.72 2.48l-1.06 7.08h2.12l-1.06-7.08zM120.838 42h-2.24c.16-.373.24-.94.24-1.7v-2.16c0-1.573.487-2.567 1.46-2.98-.96-.453-1.44-1.4-1.44-2.84v-1.1c0-1.093.26-1.9.78-2.42.52-.533 1.347-.8 2.48-.8h3.32v14h-2.2v-5.7h-.76c-.506 0-.873.14-1.1.42-.226.267-.34.72-.34 1.36v2.2c0 .747-.066 1.32-.2 1.72zm2.4-12h-1.06c-.746 0-1.12.48-1.12 1.44v1.38c0 .533.107.913.32 1.14.227.227.56.34 1 .34h.86V30zm15.853 13.88h-2.18V42h-4.7v1.88h-2.14v-3.84h.86c.32-.4.5-1.007.54-1.82l.5-10.22h6.16v12.04h.96v3.84zM134.031 30l-.4 8.18c-.054.893-.26 1.513-.62 1.86h2.88V30h-1.86zm8.685 0v3.9h3.02v2h-3.02V40h3.8v2h-6V28h6v2h-3.8zm7.204 12h-2.24c.16-.373.24-.94.24-1.7v-2.16c0-1.573.486-2.567 1.46-2.98-.96-.453-1.44-1.4-1.44-2.84v-1.1c0-1.093.26-1.9.78-2.42.52-.533 1.346-.8 2.48-.8h3.32v14h-2.2v-5.7h-.76c-.507 0-.874.14-1.1.42-.227.267-.34.72-.34 1.36v2.2c0 .747-.067 1.32-.2 1.72zm2.4-12h-1.06c-.747 0-1.12.48-1.12 1.44v1.38c0 .533.106.913.32 1.14.226.227.56.34 1 .34h.86V30zm3.367 0v-2h6.8v2h-2.3v12h-2.2V30h-2.3zm10.168 0v3.9h3.02v2h-3.02V40h3.8v2h-6V28h6v2h-3.8zm4.744 12.02v-2c.533 0 .886-.08 1.06-.24.186-.173.286-.573.3-1.2l.36-10.58h6.22v14h-2.24V30h-1.92l-.24 8.46c-.04 1.28-.307 2.193-.8 2.74-.494.547-1.294.82-2.4.82h-.34zm13.064-.02h-3.24V28h2.2v5.26h1.04c2.186 0 3.28 1.153 3.28 3.46v1.82c0 2.307-1.094 3.46-3.28 3.46zm-1.04-2h1.04c.36 0 .626-.1.8-.3.186-.2.28-.54.28-1.02v-2.1c0-.48-.094-.82-.28-1.02-.174-.2-.44-.3-.8-.3h-1.04V40zm8.032-4v6h-2.2V28h2.2v6h2.5v-6h2.24v14h-2.24v-6h-2.5zm8.555-4.78v7.56c0 .92.38 1.38 1.14 1.38.76 0 1.14-.46 1.14-1.38v-7.56c0-.92-.38-1.38-1.14-1.38-.76 0-1.14.46-1.14 1.38zm-2.2 7.42v-7.28c0-1.12.287-1.987.86-2.6s1.4-.92 2.48-.92 1.907.307 2.48.92.86 1.48.86 2.6v7.28c0 1.12-.287 1.987-.86 2.6s-1.4.92-2.48.92-1.907-.307-2.48-.92-.86-1.48-.86-2.6zm12.61-1.86h2.08v1.86c0 1.133-.28 2.007-.84 2.62-.56.6-1.374.9-2.44.9-1.067 0-1.88-.3-2.44-.9-.56-.613-.84-1.487-.84-2.62v-7.28c0-1.133.28-2 .84-2.6.56-.613 1.373-.92 2.44-.92 1.066 0 1.88.307 2.44.92.56.6.84 1.467.84 2.6v1.36h-2.08v-1.5c0-.92-.38-1.38-1.14-1.38-.76 0-1.14.46-1.14 1.38v7.56c0 .907.38 1.36 1.14 1.36.76 0 1.14-.453 1.14-1.36v-2zm2.974-6.78v-2h6.8v2h-2.3v12h-2.2V30h-2.3zm11.209 12h-3.24V28h2.2v5.26h1.04c2.187 0 3.28 1.153 3.28 3.46v1.82c0 2.307-1.093 3.46-3.28 3.46zm-1.04-2h1.04c.36 0 .627-.1.8-.3.187-.2.28-.54.28-1.02v-2.1c0-.48-.093-.82-.28-1.02-.173-.2-.44-.3-.8-.3h-1.04V40z" fill="#212121"/><defs><linearGradient id="paint0_linear_66_412" x1="-.269" y1="49.139" x2="42.747" y2="-2.031" gradientUnits="userSpaceOnUse"><stop stop-color="#00C095"/><stop offset="1" stop-color="#00FEE4"/></linearGradient><linearGradient id="paint1_linear_66_412" x1="-.119" y1="49.595" x2="42.897" y2="-1.574" gradientUnits="userSpaceOnUse"><stop stop-color="#00C095"/><stop offset="1" stop-color="#00FEE4"/></linearGradient><linearGradient id="paint2_linear_66_412" x1="13.274" y1="60.854" x2="56.29" y2="9.684" gradientUnits="userSpaceOnUse"><stop stop-color="#00BF96"/><stop offset="1" stop-color="#00FEE4"/></linearGradient><linearGradient id="paint3_linear_66_412" x1="13.275" y1="60.854" x2="56.291" y2="9.685" gradientUnits="userSpaceOnUse"><stop stop-color="#00BF96"/><stop offset="1" stop-color="#00FEE4"/></linearGradient></defs></svg>