<svg width="212" height="70" fill="none" xmlns="http://www.w3.org/2000/svg"><path d="M25.985 19.736a1.751 1.751 0 10.002-3.502 1.751 1.751 0 00-.002 3.502z" fill="url(#paint0_linear_66_404)"/><path d="M15.864 35.146c.097 0 .243 0 .34-.049.049 0 .098-.048.146-.048.049 0 .146-.049.195-.049.049 0 .097-.049.146-.097.049 0 .097-.049.097-.049.049-.048.098-.097.195-.146l.049-.048.194-.195.049-.048c.049-.098.097-.146.146-.243a2.74 2.74 0 00.194-.584 17.3 17.3 0 015.45-11.326c.438-.34.73-.875.73-1.458 0-.973-.778-1.75-1.751-1.75-.438 0-.828.145-1.12.437A20.697 20.697 0 0014.112 33.3v.097c0 .923.778 1.75 1.752 1.75z" fill="url(#paint1_linear_66_404)"/><path d="M58.734 44.625c-.681 0-1.265.389-1.557.923h-.048C53.187 53.813 44.769 59.5 34.987 59.5 21.46 59.5 10.462 48.514 10.462 35S21.46 10.5 34.987 10.5c9.1 0 17.08 4.958 21.314 12.347.292.583.876.924 1.557.924.974 0 1.752-.778 1.752-1.75 0-.34-.097-.68-.292-.924l-.584-.972c-.194-.292-.389-.583-.584-.924C53.09 11.812 44.623 7 34.987 7 19.513 7 6.96 19.542 6.96 35s12.554 28 28.028 28c10.852 0 20.244-6.174 24.915-15.167.097-.146.146-.291.243-.437 0-.049.05-.049.05-.098-.05.146 0 0 .048-.145 0-.049.048-.097.048-.097.05-.146.098-.244 0-.05.05-.194.098-.388.098-.583.097-1.02-.681-1.798-1.655-1.798z" fill="url(#paint2_linear_66_404)"/><path d="M68.077 46.375c0-.972-.778-1.75-1.751-1.75-.682 0-1.266.389-1.558.924l-.048.097C60.34 57.799 48.71 66.45 35.036 66.45c-17.42 0-31.532-14.097-31.532-31.5 0-17.4 14.16-31.45 31.532-31.45 12.993 0 24.136 7.826 28.954 19.056a1.721 1.721 0 001.654 1.263c.974 0 1.752-.777 1.752-1.75 0-.194-.049-.388-.097-.583-.34-.924-.146-.437-.536-1.312-.145-.243-.243-.535-.389-.778A34.857 34.857 0 0035.036 0C15.67 0 0 15.653 0 35s15.669 35 35.036 35c14.453 0 26.861-8.75 32.214-21.243.438-1.02.39-.73.73-1.799.049-.194.097-.389.097-.583z" fill="url(#paint3_linear_66_404)"/><path d="M45 36v6h-2.2V28H45v6h2.5v-6h2.24v14H47.5v-6H45zm11.415-8l2.24 14h-2.22l-.38-2.54h-2.7l-.38 2.54h-2.02l2.24-14h3.22zm-1.72 2.48l-1.06 7.08h2.12l-1.06-7.08zM63.12 28c2.186 0 3.28 1.153 3.28 3.46v1.82c0 2.307-1.094 3.46-3.28 3.46h-1.04V42h-2.2V28h3.24zm0 2h-1.04v4.74h1.04c.36 0 .626-.1.8-.3.186-.2.28-.54.28-1.02v-2.1c0-.48-.094-.82-.28-1.02-.174-.2-.44-.3-.8-.3zm11.739-2l-2.36 10.44c-.28 1.36-.727 2.32-1.34 2.88-.614.56-1.647.793-3.1.7v-1.96c.6.04 1.053-.02 1.36-.18.306-.16.5-.48.58-.96l.02-.12-3.04-10.8h2.18l1.2 4.78.68 3.28.52-3.26 1-4.8h2.3zm11.524 14h-10.4V28h2.2v12h1.9V28h2.2v12h1.9V28h2.2v14zm3.992-12v3.9h3.02v2h-3.02V40h3.8v2h-6V28h6v2h-3.8zm7.563 6v6h-2.2V28h2.2v6h2.5v-6h2.24v14h-2.24v-6h-2.5zm10.635-.42l-1.84 6.42h-2.26V28h1.96v8.86l.8-3.08 1.8-5.78h2.42v14h-1.98v-9.86l-.9 3.44zm6.836-5.58v3.9h3.02v2h-3.02V40h3.8v2h-6V28h6v2h-3.8zm10.888 12h-2.2V28h5.8v2h-3.6v12zm8.525-14c2.187 0 3.28 1.153 3.28 3.46v1.82c0 2.307-1.093 3.46-3.28 3.46h-1.04V42h-2.2V28h3.24zm0 2h-1.04v4.74h1.04c.36 0 .627-.1.8-.3.187-.2.28-.54.28-1.02v-2.1c0-.48-.093-.82-.28-1.02-.173-.2-.44-.3-.8-.3zm9.379-2l2.24 14h-2.22l-.38-2.54h-2.7l-.38 2.54h-2.02l2.24-14h3.22zm-1.72 2.48l-1.06 7.08h2.12l-1.06-7.08zm7.385 5.52v6h-2.2V28h2.2v6h2.5v-6h2.24v14h-2.24v-6h-2.5zm10.635-.42l-1.84 6.42h-2.26V28h1.96v8.86l.8-3.08 1.8-5.78h2.42v14h-1.98v-9.86l-.9 3.44zm4.635 6.42V28h2.2v12h2.5V28h2.24v12.04h.96v3.84h-2.14V42h-5.76z" fill="#212121"/><defs><linearGradient id="paint0_linear_66_404" x1="-.269" y1="49.139" x2="42.747" y2="-2.031" gradientUnits="userSpaceOnUse"><stop stop-color="#00C095"/><stop offset="1" stop-color="#00FEE4"/></linearGradient><linearGradient id="paint1_linear_66_404" x1="-.119" y1="49.595" x2="42.897" y2="-1.574" gradientUnits="userSpaceOnUse"><stop stop-color="#00C095"/><stop offset="1" stop-color="#00FEE4"/></linearGradient><linearGradient id="paint2_linear_66_404" x1="13.274" y1="60.854" x2="56.29" y2="9.684" gradientUnits="userSpaceOnUse"><stop stop-color="#00BF96"/><stop offset="1" stop-color="#00FEE4"/></linearGradient><linearGradient id="paint3_linear_66_404" x1="13.275" y1="60.854" x2="56.291" y2="9.685" gradientUnits="userSpaceOnUse"><stop stop-color="#00BF96"/><stop offset="1" stop-color="#00FEE4"/></linearGradient></defs></svg>