<svg width="49" height="60" fill="none" xmlns="http://www.w3.org/2000/svg"><path d="M46.144 6.095L26.614.335a8.177 8.177 0 00-4.636 0l-19.53 5.76A3.434 3.434 0 000 9.37v16.174c0 7.485 2.228 14.692 6.443 20.843a36.886 36.886 0 0016.563 13.359 3.42 3.42 0 002.581 0 36.883 36.883 0 0016.562-13.36c4.216-6.15 6.444-13.357 6.444-20.842V9.37a3.433 3.433 0 00-2.449-3.275zm-.283 19.448a33.992 33.992 0 01-5.965 19.3 34.162 34.162 0 01-15.338 12.372.69.69 0 01-.523 0A34.16 34.16 0 018.697 44.843a33.991 33.991 0 01-5.965-19.298V9.37c0-.3.201-.57.49-.655l19.53-5.76a5.457 5.457 0 013.09 0l19.53 5.76c.288.085.49.354.49.655v16.174z" fill="#1A3D8A"/><path d="M20.265 34.874c.557.56 1.298.868 2.085.868a2.92 2.92 0 002.085-.868l7.865-7.902a2.97 2.97 0 000-4.19 2.937 2.937 0 00-4.17 0l-5.78 5.807-1.847-1.855a2.937 2.937 0 00-4.17 0 2.97 2.97 0 000 4.19l3.932 3.95zm-2.542-6.744a.979.979 0 011.39 0l2.542 2.554a.98.98 0 001.39 0l6.474-6.505a.98.98 0 011.39 0 .99.99 0 010 1.397l-7.864 7.901a.974.974 0 01-1.39 0l-3.932-3.95a.99.99 0 010-1.397z" fill="#00BF96"/><path d="M39.431 12.135L24.876 7.843a2.044 2.044 0 00-1.159 0L9.162 12.135a2.06 2.06 0 00-1.47 1.965v11.443c0 6.047 1.83 11.847 5.29 16.773a29.406 29.406 0 0010.366 9.119 2.041 2.041 0 001.897 0 29.407 29.407 0 0010.366-9.12 29.026 29.026 0 005.29-16.772V14.1a2.06 2.06 0 00-1.47-1.965zM38.17 25.543a26.31 26.31 0 01-4.793 15.202 26.681 26.681 0 01-9.08 8.1 26.681 26.681 0 01-9.079-8.1 26.31 26.31 0 01-4.793-15.202V14.611l13.873-4.091 13.872 4.091v10.932z" fill="#1A3D8A"/></svg>