<svg width="50" height="60" fill="none" xmlns="http://www.w3.org/2000/svg"><path d="M.886 53.498c-.444.768.135 1.756 1.016 1.756l4.863-.03L9.094 59.4c.206.368.595.597 1.017.601h.008c.42 0 .808-.224 1.017-.587l6.98-12.093c.814 1.076 1.812 2.187 3.305 1.964.756-.113 1.422-.535 2.056-.936.427-.272 1.004-.78 1.54-.744.58.04 1.228.649 1.706.941.614.376 1.277.728 2.011.764 1.375.065 2.28-.99 3.038-1.99l6.98 12.094c.463.804 1.68.756 2.076-.084l1.988-4.206 5.139.132c.894.025 1.495-.98 1.046-1.757l-6.799-11.776c1.183-.249 2.147-.91 2.442-2.133.252-1.045-.141-2.133.081-3.16.192-.885 1.636-1.22 2.33-1.666.973-.624 1.627-1.527 1.517-2.735-.063-.684-.347-1.322-.607-1.95-.162-.391-.483-.928-.439-1.368.081-.815 1.327-1.637 1.783-2.29.619-.888.825-1.915.358-2.919-.47-1.01-1.5-1.593-2.007-2.548-.399-.751.38-1.815.63-2.526.38-1.078.45-2.215-.338-3.131-.618-.719-1.523-1.079-2.335-1.524-.321-.176-.72-.349-.86-.71-.15-.389-.047-.948-.03-1.353.043-.982.103-2.048-.473-2.903-.535-.792-1.426-1.102-2.326-1.264-.74-.134-1.978-.003-2.42-.708-.442-.705-.506-1.651-.86-2.408-.484-1.039-1.33-1.722-2.506-1.764-.967-.034-1.865.35-2.813.448-.97.101-1.415-.966-1.953-1.624-.548-.668-1.204-1.295-2.09-1.449-1.202-.209-2.226.53-3.187 1.132-.852.535-1.2.674-2.088.139-.963-.58-1.936-1.375-3.13-1.303-.92.054-1.64.63-2.22 1.3-.507.588-1.031 1.79-1.89 1.826-.915.037-1.833-.437-2.756-.467-2.591-.084-2.713 2.18-3.549 3.977-.385.83-1.355.729-2.162.847-.922.134-1.887.363-2.513 1.11-.675.804-.683 1.875-.643 2.868.038.94.223 1.662-.665 2.188-.804.477-1.715.797-2.389 1.472-.834.836-.926 1.93-.592 3.021.22.72 1.046 1.883.813 2.656-.23.765-1.279 1.438-1.735 2.092-1.354 1.94-.084 3.448 1.224 4.94.237.27.55.569.558.948.01.422-.283.917-.44 1.296-.407.985-.859 2.057-.473 3.125.364.998 1.304 1.548 2.196 2.015.84.439 1.526.63 1.539 1.658.012 1.023-.203 2.08.168 3.068.387 1.03 1.293 1.559 2.33 1.776L.886 53.498zm33.009-7.192c1.483.314 3.164.736 4.273-.623.444-.543.672-1.227.88-1.886.133-.421.273-1.387.71-1.621l6.165 10.681c-1.28-.032-2.56-.075-3.841-.098-.453 0-.868.261-1.061.672l-1.357 2.87-5.77-9.995zM18.598 44.39c-1.122-.823-2.438-.515-3.691-.245-.327.07-.98.308-1.293.13-.296-.169-.412-.8-.51-1.099-.33-1.02-.6-2.138-1.495-2.825-.878-.675-2.023-.691-3.07-.86-.393-.064-.836-.07-1.014-.45-.172-.367-.032-1.053-.016-1.444.049-1.152.028-2.336-.83-3.212-.763-.78-1.84-1.037-2.695-1.673-.76-.565.165-1.809.415-2.505.473-1.318.35-2.454-.525-3.56-.424-.534-1.782-1.494-1.482-2.24.377-.94 1.501-1.567 1.98-2.486.65-1.249.172-2.477-.325-3.684-.132-.32-.5-.916-.397-1.273.103-.358.696-.587.993-.745.906-.482 1.931-.925 2.47-1.854.6-1.035.373-2.263.367-3.398-.002-.497-.055-.826.43-1.015.425-.166.94-.17 1.388-.231 1.202-.163 2.348-.467 3.022-1.56.534-.864.52-2.133 1.13-2.918.47-.606 1.96.063 2.604.16 1.32.201 2.362-.154 3.253-1.142.44-.487 1.151-1.954 1.877-1.884.414.039.894.482 1.236.698.476.302.957.608 1.49.798 1.266.451 2.382-.054 3.451-.73.354-.223.912-.727 1.343-.767.385-.036.586.272.826.56.678.813 1.24 1.808 2.239 2.276 1.18.552 2.442.084 3.638-.132.409-.074.76-.183 1.03.163.26.332.342.886.467 1.285.341 1.086.746 2.159 1.819 2.71 1.026.528 2.238.267 3.255.712.786.345.37 1.808.38 2.532.015 1.205.392 2.187 1.395 2.899.467.331.988.57 1.492.838.277.148.874.37.987.692.118.337-.23.933-.356 1.24-.239.581-.51 1.161-.628 1.782-.26 1.352.393 2.348 1.267 3.308.312.343.807.73.982 1.165.154.387-.056.607-.306.916-.713.88-1.68 1.626-1.947 2.784-.291 1.27.428 2.41.832 3.562.15.426.262.672-.09.985-.362.322-.897.515-1.322.74-.98.52-1.883 1.149-2.179 2.28-.164.626-.133 1.284-.107 1.924.017.418.131.966 0 1.37-.202.624-1.654.69-2.24.69-1.36.218-2.345.839-2.89 2.131-.275.654-.433 2.41-1.227 2.524-.44.063-1.014-.164-1.447-.259-.592-.128-1.199-.253-1.808-.205-1.393.11-2.169 1.159-2.958 2.179-.246.317-.59.923-1.033.934-.378.01-.904-.466-1.201-.654-1.144-.723-2.296-1.348-3.664-.866-.631.222-1.184.607-1.745.962-.278.175-.8.622-1.158.566-.414-.065-.818-.802-1.048-1.102-.41-.534-.816-1.07-1.36-1.477-.226-.166.018.014 0 0zM3.94 52.897l6.189-10.722c.156.103.223.257.305.423.375.76.475 1.633.856 2.396.99 1.982 2.855 1.703 4.703 1.312L10.136 56.45l-1.66-2.974a1.175 1.175 0 00-1.025-.6h-.007l-3.505.02z" fill="#1A3D8A"/><path d="M9.447 24.658c0-8.547 6.952-15.5 15.497-15.5s15.497 6.953 15.497 15.5c0 8.546-6.952 15.5-15.497 15.5s-15.497-6.954-15.497-15.5zm2.347 0c0 7.254 5.899 13.156 13.15 13.156 7.25 0 13.15-5.902 13.15-13.156 0-7.255-5.9-13.156-13.15-13.156-7.251 0-13.15 5.901-13.15 13.156z" fill="#1A3D8A"/><path d="M29.755 29.273h-1.65V16.651a.95.95 0 00-.948-.948h-2.48a.95.95 0 00-.61.222l-4.508 3.783a.944.944 0 00-.138 1.31L20.9 22.91a.95.95 0 001.351.147l1.028-.85v7.066h-2.083a.95.95 0 00-.948.948v2.25a.95.95 0 00.948.949h8.559a.95.95 0 00.948-.949v-2.25a.95.95 0 00-.948-.948zm-.523 2.675H21.72v-1.203h2.082a.95.95 0 00.948-.948v-8.704a.94.94 0 00-.544-.858.94.94 0 00-1.009.128l-1.47 1.217-.835-1.07 3.975-3.335h1.767v12.622a.95.95 0 00.948.948h1.65v1.203z" fill="#00BF96"/></svg>