<svg width="63" height="60" fill="none" xmlns="http://www.w3.org/2000/svg"><path d="M56.941 12.096H51.81V5.498A5.504 5.504 0 0046.312 0H5.498A5.504 5.504 0 000 5.498v36.908a5.504 5.504 0 005.498 5.498h5.131v6.598A5.504 5.504 0 0016.128 60H56.94a5.504 5.504 0 005.498-5.498V17.594a5.504 5.504 0 00-5.498-5.498zm0 2.44a3.062 3.062 0 013.06 3.058V50.26L44.456 32.688a1.22 1.22 0 00-1.827 0l-8.336 9.424-5.924-6.393a1.22 1.22 0 00-1.789 0L13.068 50.302V17.594a3.063 3.063 0 013.06-3.059H56.94zM32.67 43.947l-6.081 6.874H15.912l11.564-12.48 5.194 5.606zM10.63 17.594v27.87H5.497a3.063 3.063 0 01-3.059-3.058V5.498a3.062 3.062 0 013.06-3.059h40.813a3.062 3.062 0 013.059 3.059v6.598H16.127a5.504 5.504 0 00-5.498 5.498zm46.31 39.967H16.127a3.063 3.063 0 01-3.059-3.059v-1.241h38.579a1.22 1.22 0 000-2.438H29.845l13.699-15.486 13.699 15.486h-6.701a1.22 1.22 0 000 2.439H60v1.24a3.062 3.062 0 01-3.059 3.06z" fill="#1A3D8A"/><path d="M31.941 31.636a6.474 6.474 0 01-6.467-6.467 6.474 6.474 0 016.467-6.467 6.474 6.474 0 016.467 6.467 6.474 6.474 0 01-6.467 6.467zm0-10.495a4.032 4.032 0 00-4.028 4.028 4.033 4.033 0 004.028 4.028 4.033 4.033 0 004.028-4.028 4.033 4.033 0 00-4.028-4.028z" fill="#00BF96"/></svg>