<svg width="46" height="60" fill="none" xmlns="http://www.w3.org/2000/svg"><path d="M38.775 21.301h-2.639v-8.056C36.136 5.942 30.195 0 22.892 0S9.647 5.942 9.647 13.245V21.3H7.008C3.144 21.301 0 24.444 0 28.308v24.684A7.016 7.016 0 007.008 60h31.767a7.016 7.016 0 007.008-7.008V28.308c0-3.864-3.144-7.007-7.008-7.007zM12 13.245c0-6.006 4.886-10.892 10.892-10.892 6.005 0 10.891 4.886 10.891 10.892V21.3h-3.317v-8.056c0-4.177-3.398-7.576-7.574-7.576-4.177 0-7.574 3.398-7.574 7.576V21.3H12v-8.056zm16.113 0V21.3H17.67v-8.056a5.228 5.228 0 015.22-5.223 5.228 5.228 0 015.222 5.223zM43.43 52.992a4.66 4.66 0 01-4.656 4.655H7.008a4.66 4.66 0 01-4.655-4.655V28.308a4.66 4.66 0 014.655-4.654h31.767a4.66 4.66 0 014.656 4.654v24.684z" fill="#1A3D8A"/><path d="M19.899 41.248l-.789 7.09a1.253 1.253 0 001.243 1.389h5a1.25 1.25 0 001.242-1.388l-.788-7.091a4.945 4.945 0 002.046-4.021c0-2.758-2.243-5-5-5-2.758 0-5 2.242-5 5a4.94 4.94 0 002.046 4.02zm2.954-6.521c1.378 0 2.5 1.122 2.5 2.5a2.48 2.48 0 01-1.421 2.24 1.25 1.25 0 00-.698 1.264l.722 6.495H21.75l.723-6.495a1.25 1.25 0 00-.698-1.263 2.48 2.48 0 01-1.421-2.241c0-1.378 1.122-2.5 2.5-2.5z" fill="#00BF96"/></svg>