<svg width="103" height="51" fill="none" xmlns="http://www.w3.org/2000/svg"><g opacity=".7"><path d="M26.32 33.069v-4.792h1.18v-5.972l3.576-3.576h5.938v9.548h1.215v4.792h-2.396v-2.396h-7.118v2.396H26.32zm8.333-4.792v-7.153h-2.396l-2.396 2.396v4.792h4.792v-.035zm5.937 2.396l-1.18-1.18v-9.55l1.18-1.215h8.368l1.18 1.216v9.548l-1.18 1.181H40.59zm7.188-2.396v-7.153H41.84v7.153h5.938zm4.062 2.396V18.729h2.396v4.791h3.577l2.395-2.396V18.73h2.361v3.61l-2.36 2.396 2.36 2.396v3.577h-2.36v-2.396l-2.397-2.361h-3.576v4.757H51.84v-.035zm12.084 0V22.34l3.541-3.611h7.153v11.944h-2.361v-3.576h-5.938v3.576h-2.395zm8.333-5.938v-3.61H68.68l-2.36 2.395v1.18h5.937v.035zm3.889 5.938v-3.576l2.396-2.396-2.396-2.396v-3.576h2.396v2.43l2.36 2.396h1.181v-4.826h2.396v4.791h1.18l2.397-2.396V18.73h2.36v3.61l-2.36 2.396 2.36 2.396v3.577h-2.36v-2.396L85.66 25.95h-1.18v4.757h-2.397v-4.792h-1.145l-2.362 2.361v2.396h-2.43zm15.834 0V18.729h2.395v7.95l5.937-7.95h2.362v11.944h-2.362v-7.951l-5.937 7.951h-2.396z" fill="#212121"/><path d="M18.542 14.354a1.25 1.25 0 100-2.5 1.25 1.25 0 000 2.5z" fill="url(#paint0_linear_66_938)"/><path d="M11.32 25.36c.069 0 .173 0 .242-.034.035 0 .07-.035.105-.035.034 0 .104-.035.139-.035.034 0 .069-.035.104-.07.034 0 .07-.034.07-.034a.48.48 0 01.138-.104l.035-.035.139-.139.034-.035c.035-.069.07-.104.105-.173.069-.14.104-.278.139-.417a12.361 12.361 0 013.888-8.09c.313-.243.521-.625.521-1.042 0-.694-.555-1.25-1.25-1.25a1.1 1.1 0 00-.798.313 14.789 14.789 0 00-4.861 9.86v.07c0 .66.555 1.25 1.25 1.25z" fill="url(#paint1_linear_66_938)"/><path d="M41.91 32.131a1.27 1.27 0 00-1.111.66h-.035c-2.813 5.903-8.82 9.965-15.799 9.965-9.652 0-17.5-7.847-17.5-17.5 0-9.652 7.848-17.5 17.5-17.5a17.513 17.513 0 0115.209 8.82c.208.416.625.66 1.11.66.695 0 1.25-.556 1.25-1.25 0-.244-.069-.487-.208-.66l-.416-.695c-.14-.208-.278-.416-.417-.66-3.611-5.277-9.653-8.715-16.528-8.715-11.041 0-20 8.959-20 20 0 11.042 8.959 20 20 20 7.743 0 14.445-4.41 17.778-10.833.07-.104.104-.208.174-.313 0-.034.034-.034.034-.069l.035-.104c0-.035.035-.07.035-.07.035-.104.07-.173 0-.034.035-.14.07-.278.07-.417.069-.73-.487-1.285-1.181-1.285z" fill="url(#paint2_linear_66_938)"/><path d="M48.576 33.381c0-.694-.555-1.25-1.25-1.25a1.27 1.27 0 00-1.11.66l-.035.07C43.056 41.54 34.757 47.72 25 47.72c-12.43 0-22.5-10.069-22.5-22.5C2.5 12.792 12.604 2.757 25 2.757c9.27 0 17.222 5.59 20.66 13.611.139.521.625.903 1.18.903.695 0 1.25-.555 1.25-1.25 0-.139-.034-.277-.07-.416-.242-.66-.103-.313-.381-.938-.104-.174-.174-.382-.278-.556A24.87 24.87 0 0025 .257c-13.82 0-25 11.18-25 25s11.18 25 25 25c10.313 0 19.167-6.25 22.986-15.173.313-.73.278-.521.521-1.285.035-.139.07-.278.07-.417z" fill="url(#paint3_linear_66_938)"/></g><defs><linearGradient id="paint0_linear_66_938" x1="-.192" y1="35.355" x2="30.539" y2="-1.163" gradientUnits="userSpaceOnUse"><stop stop-color="#00C095"/><stop offset="1" stop-color="#00FEE4"/></linearGradient><linearGradient id="paint1_linear_66_938" x1="-.085" y1="35.681" x2="30.647" y2="-.837" gradientUnits="userSpaceOnUse"><stop stop-color="#00C095"/><stop offset="1" stop-color="#00FEE4"/></linearGradient><linearGradient id="paint2_linear_66_938" x1="9.472" y1="43.723" x2="40.203" y2="7.205" gradientUnits="userSpaceOnUse"><stop stop-color="#00BF96"/><stop offset="1" stop-color="#00FEE4"/></linearGradient><linearGradient id="paint3_linear_66_938" x1="9.472" y1="43.724" x2="40.204" y2="7.206" gradientUnits="userSpaceOnUse"><stop stop-color="#00BF96"/><stop offset="1" stop-color="#00FEE4"/></linearGradient></defs></svg>