<svg width="103" height="50" fill="none" xmlns="http://www.w3.org/2000/svg"><path d="M26.347 32.812v-4.791h1.181v-5.973l3.58-3.576h5.944v9.549h1.217v4.791H35.87v-2.395h-7.125v2.395h-2.398zm8.342-4.791v-7.153H32.29l-2.398 2.396v4.791h4.797v-.034zm5.943 2.396l-1.181-1.181v-9.549l1.181-1.215h8.377l1.182 1.215v9.549l-1.182 1.18h-8.377zm7.195-2.396v-7.153h-5.943v7.153h5.943zm4.067 2.396V18.472h2.398v4.792h3.58l2.399-2.396v-2.396h2.363v3.611l-2.363 2.396 2.363 2.396v3.576h-2.363v-2.396l-2.399-2.36h-3.58v4.756h-2.398v-.034zm12.096 0v-8.334l3.545-3.61h7.16v11.944h-2.363V26.84h-5.944v3.577H63.99zm8.342-5.938v-3.611h-3.58l-2.364 2.396v1.18h5.944v.035zm3.893 5.938V26.84l2.398-2.396-2.398-2.395v-3.577h2.398v2.43l2.364 2.396h1.181v-4.826h2.399v4.792h1.181l2.399-2.396v-2.396h2.363v3.611l-2.363 2.396 2.363 2.396v3.576h-2.363v-2.396l-2.399-2.36h-1.181v4.756h-2.399V25.66h-1.147l-2.363 2.36v2.397h-2.433zm15.849 0V18.472h2.399v7.951l5.943-7.95h2.364v11.944h-2.364v-7.952l-5.943 7.952h-2.399z" fill="#fff"/><path d="M18.56 14.097a1.25 1.25 0 10.002-2.501 1.25 1.25 0 00-.001 2.501z" fill="url(#paint0_linear_66_452)"/><path d="M11.331 25.104c.07 0 .174 0 .244-.034.034 0 .069-.035.104-.035.034 0 .104-.035.139-.035.034 0 .07-.035.104-.07.035 0 .07-.034.07-.034a.48.48 0 01.139-.104l.034-.035.14-.139.034-.035c.035-.069.07-.104.104-.173a1.96 1.96 0 00.14-.417 12.357 12.357 0 013.892-8.09c.313-.243.522-.625.522-1.042 0-.694-.556-1.25-1.252-1.25a1.1 1.1 0 00-.799.313 14.783 14.783 0 00-4.866 9.86v.07c0 .66.556 1.25 1.251 1.25z" fill="url(#paint1_linear_66_452)"/><path d="M41.953 31.875c-.486 0-.904.278-1.112.66h-.035A17.487 17.487 0 0124.991 42.5c-9.663 0-17.518-7.847-17.518-17.5 0-9.653 7.855-17.5 17.518-17.5 6.5 0 12.2 3.542 15.224 8.82.209.416.626.66 1.112.66.696 0 1.252-.556 1.252-1.25 0-.244-.07-.487-.209-.66l-.417-.695a10.862 10.862 0 01-.417-.66C37.921 8.438 31.873 5 24.991 5c-11.053 0-20.02 8.958-20.02 20s8.967 20 20.02 20c7.751 0 14.46-4.41 17.796-10.833.07-.105.105-.209.174-.313 0-.035.035-.035.035-.07l.035-.103c0-.035.034-.07.034-.07.035-.104.07-.173 0-.035.035-.139.07-.277.07-.416.07-.73-.487-1.285-1.182-1.285z" fill="url(#paint2_linear_66_452)"/><path d="M48.627 33.125c0-.694-.556-1.25-1.252-1.25-.486 0-.903.278-1.112.66l-.035.07a22.51 22.51 0 01-21.202 14.86c-12.444 0-22.523-10.07-22.523-22.5S12.617 2.5 25.026 2.5c9.28 0 17.24 5.59 20.681 13.611.139.52.626.903 1.182.903.695 0 1.251-.556 1.251-1.25 0-.139-.035-.278-.07-.417-.243-.66-.104-.312-.382-.937-.104-.174-.174-.382-.278-.556A24.898 24.898 0 0025.026 0C11.192 0 0 11.18 0 25s11.192 25 25.026 25c10.323 0 19.186-6.25 23.01-15.174.313-.729.278-.52.521-1.284.035-.14.07-.278.07-.417z" fill="url(#paint3_linear_66_452)"/><defs><linearGradient id="paint0_linear_66_452" x1="-.192" y1="35.099" x2="30.533" y2="-1.451" gradientUnits="userSpaceOnUse"><stop stop-color="#00C095"/><stop offset="1" stop-color="#00FEE4"/></linearGradient><linearGradient id="paint1_linear_66_452" x1="-.085" y1="35.425" x2="30.641" y2="-1.125" gradientUnits="userSpaceOnUse"><stop stop-color="#00C095"/><stop offset="1" stop-color="#00FEE4"/></linearGradient><linearGradient id="paint2_linear_66_452" x1="9.482" y1="43.467" x2="40.207" y2="6.917" gradientUnits="userSpaceOnUse"><stop stop-color="#00BF96"/><stop offset="1" stop-color="#00FEE4"/></linearGradient><linearGradient id="paint3_linear_66_452" x1="9.482" y1="43.467" x2="40.208" y2="6.918" gradientUnits="userSpaceOnUse"><stop stop-color="#00BF96"/><stop offset="1" stop-color="#00FEE4"/></linearGradient></defs></svg>