<svg width="644" height="648" fill="none" xmlns="http://www.w3.org/2000/svg"><path d="M367.068 451.216c0 99.349-82.169 179.883-183.534 179.883S0 550.565 0 451.216s82.169-179.883 183.534-179.883 183.534 80.534 183.534 179.883z" fill="url(#paint0_radial_66_276)"/><path d="M367.068 451.216c0 99.349-82.169 179.883-183.534 179.883S0 550.565 0 451.216s82.169-179.883 183.534-179.883 183.534 80.534 183.534 179.883z" fill="url(#paint1_radial_66_276)"/><path d="M359.251 500.593c-2.433.085-5.56 1.192-5.646 1.958 0 .851-3.388 2.298-4.517 2.724-1.129.426-3.214 3.746-3.735 4.852-.434 1.107-3.214.767-4.169 1.192-.956.426-3.04 2.043-3.127 3.065 0 .937-.608.851-1.216-.255l-1.303 1.362-1.564 1.702c-.868 2.81-3.908 6.3-4.951 6.556-1.042.255-1.216 5.107-1.216 7.066 0 1.958.782 4.341 1.738 5.363l.173 1.532.348 3.065c-.521 2.384 1.303 4.512 1.824 4.938.521.425 5.038-.767 6.775-1.192.695-.171 1.65-.596 2.519-1.022 8.165-13.366 14.505-27.753 18.935-43.077-.174.171-.521.171-.868.171zM55.677 505.19c-.26.511 3.04 3.831 4.343 4.937 1.303 1.107 3.996 6.556 4.517 8.343.521 1.788.26 4.683.087 5.364-.174.681.608 2.213.781 2.809.087.596-1.129 5.959-.694 8.088.434 2.128-2.52 8.768-2.52 12.088.087 3.32 1.564 7.577 2.259 7.322.608-.341.869 2.979-.174 3.405-1.042.426-2.258 3.065-1.65 3.15.608.17 0 2.724.087 3.746.173 1.021 1.042 7.917 1.216 9.619.174 1.703 2.692 5.875 3.214 7.322.52 1.447 1.042 4.086 1.216 4.512.173.425.434.851.52.851.088 0 2.085.766 2.607 1.192.608.426 4.516.17 5.82-.085 1.302-.256.086-1.447-.435-2.043-.608-.596-1.13-3.661-1.737-4.002-.695-.255-.956-4.171-.348-5.022.608-.852 2.954-2.214 3.214-2.98.26-.681.347-4.086-.347-4.597-.608-.426.173-4.597-.261-6.64-.434-2.043 3.648-3.916 3.822-5.534.26-1.617 4.69-3.32 5.646-4.171.955-.852 1.824-5.449 1.39-6.47-.522-1.022 1.65-1.788 2.605-1.788.956 0 1.998-.681 2.345-.681.348 0 1.477-2.043 2.085-2.554.608-.511 1.824-5.363 2.953-6.13 1.13-.766 1.998-3.745 1.998-4.597 0-.851 1.65-3.405 2.258-4.171.522-.766 4.691-2.639 5.386-2.895.695-.34 1.824-6.81 2.171-9.109.261-2.298 1.564-5.448 1.65-6.214.087-.767 1.39-1.448 1.651-1.703.26-.255 1.216-3.235 1.911-3.916.608-.681 2.953-3.491 2.953-4.172.087-.595.434-2.213.782-3.575v-4.172c-.695-1.958-2.954-4.426-3.475-3.83-.608.51-3.127-1.703-4.43-2.214-1.302-.426-4.516-.851-5.385-.851-.782 0-3.648-2.299-4.951-2.724-1.303-.341-4.517-1.022-5.125-1.363-.608-.34-1.39-5.107-3.995-6.64-2.606-1.532-7.21-5.193-7.73-6.47-.522-1.277-5.56-4.086-7.123-4.938-1.564-.851-3.909-1.021-4.17-.766-.347.256-2.258-2.554-3.213-3.405-1.042-.766-3.996-1.447-4.17-.766-.173.766-2.17.34-2.605-.256-.434-.595-1.998.256-2.78.511-.694.256-3.213 4.001-4.342 4.853-1.13.851-2.52-.852-3.301-1.192-.782-.341-3.648.596-4.43 1.107-.782.51-2.606-4.002-2.172-6.045.435-2.043-1.91-6.214-3.734-6.299-1.738-.086-2.346-4.427-1.998-6.045.347-1.617-3.214-2.554-4.17-2.724-.955-.085-3.126 2.128-3.56 3.235-.348 1.107-8.513-1.447-7.557-6.215.955-4.767 4.777-9.705 5.732-10.301.956-.596 6.167-.851 7.383-.255 1.13.681 2.172 0 2.432-.341.174-.255 4.43.086 5.733.596 1.303.511 3.127 5.364 4.43 5.96 1.303.596 1.824-3.15 1.998-4.002.26-.936-.608-3.235-.956-3.831-.347-.681 2.085-6.47 4.083-7.491 1.997-1.022 4.082-4.257 3.908-4.853-.173-.596 1.564-1.021 2.085-1.277.521-.255-.087-4.937.695-5.959.782-1.021 4.517-3.15 5.733-3.661 1.216-.51 2.084-3.49 1.65-4.001-.434-.51 3.04-3.49 4.864-4.001 1.824-.511 3.388 1.022 2.953 1.277.348-.17 2.866-1.447 3.909-2.128 1.216-.766 0-3.065-.782-3.661-.782-.596-.347-3.235.608-3.405.956-.256 1.824-2.469 1.564-2.895-.261-.51 3.995.426 5.645-.766 1.564-1.192.435 2.81-.694 4.427-1.13 1.618.868 3.15 1.65 2.809.782-.34 1.563.852 1.737 1.277.174.426 1.824-.51 2.866 0 1.043.426 1.738-1.447 1.824-2.298.087-.852-2.605-2.724-2.953-3.746-.434-1.022-.608-7.151-.608-8.428-.087-1.277-1.737-3.32-2.345-2.895-.521.341-1.65-3.235-2.519-4.001-.868-.766-1.13-2.469-1.042-3.064 0-.596-3.04-3.746-3.735-5.194-.695-1.447-1.737-1.191-1.824-.51-.087.681-2.172.766-3.04.681-.869-.085-1.564-3.406-1.564-4.597 0-1.277-3.908-1.448-4.603-2.469-.608-1.022-3.214-.511-3.648-1.192-.435-.681-2.693-1.362-3.127-1.107-.435.256-.26 9.195-.695 11.663-.434 2.384-2.52 4.512-3.3 4.512-.783-.085-.261 1.703.26 1.533.52-.171-1.477 2.639-1.737 4.512-.261 1.873-2.172-.085-2.433-1.703-.347-1.703-2.171-3.916-2.518-3.32-.348.596-1.65-.681-2.172-.341-.521.341-4.082-1.958-5.472-2.724-1.39-.766-2.172-5.023-3.04-5.363-.869-.426-.174-.851-.174-1.533 0-.681 2.78-3.149 3.561-4.086.869-1.021 3.91-4.852 5.038-5.704 1.216-.851 2.172-3.064 1.911-3.49-.174-.426 5.125-2.043 6.602-2.554 1.476-.511 2.692-4.427 2.866-5.619.174-1.106-.956-3.32-1.564-3.575-.694-.256 1.998-.341 2.954.085.868.426 3.648-.766 4.777-.256 1.042.596 3.3 1.873 4.864 2.81l-.348 2.894-.694 4.938c-4.257 1.703-5.472 4.682-3.996 4.597 1.477-.085 8.252 2.895 10.163 4.172 1.91 1.362 2.519-1.959 3.04-3.065.608-1.107.347-4.257-.087-4.853-.434-.596 2.171-.425 2.953.256s1.65-.767 2.172-.937c.608-.255.868-2.979 1.216-3.49.26-.596-1.303-1.107-1.303-1.788-.087-.681-3.127-1.958-4.083-2.469-.955-.425-1.216-2.554-.695-2.894.522-.341-.347-2.98-.868-3.831-.434-.852-3.648-1.533-4.69-1.533-1.043 0-2.172-2.383-2.78-2.724-.608-.34-4.69-.766-5.646-.511-1.042.256-2.866-2.809-4.517-1.872-1.737.936-3.474-1.107-4.256-1.533-.781-.426-4.777 3.746-4.69 6.726.087 2.979 1.563 5.789 2.171 5.874.608.085-.173 2.724-.868 3.49-.695.766-2.345-.766-1.737-1.447.608-.681-1.738-3.746-2.52-5.023-.607-.936-2.605-1.703-4.082-2.299-.868.852-1.65 1.788-2.432 2.64.348 1.106.695 2.468.348 3.49-.608 1.788-2.085 2.043-2.172 1.277 0-.341-.782-.596-1.737-.681-22.41 25.88-37.263 58.315-41.432 93.9.869 1.022 1.911 2.214 2.172 2.98.52 1.617 3.3 2.639 3.821 2.979.522.341.695-3.064.348-3.916-.348-.851.695-1.362.695-.766 0 .681 2.606 3.576 3.56 4.682.87 1.022 1.825 7.918 2.607 9.45.868 1.447 8.946 4.512 11.552 5.108 2.606.511 5.906 3.405 6.428 4.257.52.851 3.995 1.277 4.69 1.532.782.341 2.519 2.639 3.3 3.15.696.511 1.303 1.873 1.303 2.213 0 .341 4.604 2.043 5.646 3.235 1.13 1.192 2.954.852 3.301.341.348-.511 1.216 2.384 1.737 3.405.434 1.022.608 3.49.26 3.831-.347.341-1.041 4.853-1.823 5.789-.782.936-2.432 7.492-2.085 8.769.348 1.277 2.52 4.001 3.388 4.341.955.426.52 1.788-.174 1.873-.695.085-.434 6.385 1.303 7.236 1.65.937 3.127 3.661 2.866 4.172zm21.628-109.735c-.087 0-.087 0 0 0zm-12.594-76.023c2.171-.34 5.82-.936 6.08-1.532.173-.511.173-1.958-.174-2.469h1.042c.869 0 2.259-4.512 3.127-5.534.869-1.021 5.907-2.553 7.123-3.32 1.216-.681 3.822-3.15 4.864-3.49 1.042-.341 2.519-2.639 2.258-3.065-.26-.425 3.388-2.639 4.777-3.15 1.39-.596 2.085-2.128 1.564-2.213-.347-.085-7.991 3.916-15.027 7.832-7.99 5.363-15.548 11.323-22.67 17.793 2.171-.256 5.646-.681 7.036-.852zm132.981 224.323c2.345-1.363 6.341-7.152 7.644-8.343 1.303-1.192 2.258-5.619 2.519-6.556.26-.936 2.258-2.553 3.04-2.724.695-.17 3.127-9.96 5.211-12.088 2.085-2.129 4.517-12.43 4.256-16.09-.26-3.661 1.39-10.727 1.824-12.43.522-1.702 3.127-4.682 3.909-5.278.782-.596 5.82-7.917 7.47-10.556 1.65-2.639 3.127-8.428 2.866-9.79-.347-1.362-3.821-2.299-4.516-1.618-.695.681-3.996 1.192-5.038 1.192-1.042 0-3.474-5.533-5.038-6.725-1.477-1.107-2.866-7.492-3.735-8.684-.868-1.192-3.301-4.256-4.082-4.937-.782-.681-.869-4.087-1.043-5.023-.173-.937 1.477.596 1.738 1.958.26 1.362 4.169 6.81 5.385 8.598 1.216 1.873 4.43 7.662 5.211 9.45.782 1.788 7.905.936 10.163-.171 2.258-1.106 5.125-2.894 5.298-3.49.087-.596 3.735-2.298 4.778-3.065 1.042-.766 1.911-4.937 2.605-5.618.695-.681-.521-4.683-1.302-5.874-.782-1.192-4.43-2.129-5.125-1.703-.782.426-2.345-2.639-2.867-3.831-.521-1.192-3.387-2.554-3.648-3.32-.26-.766.782-2.043 1.216-2.299.435-.255 5.646 3.32 7.123 5.023 1.477 1.788 3.214 5.023 3.474 5.619.261.596 4.343.851 5.299.17.868-.681 1.997-.511 2.345.341l1.303-.256 4.516-.681c2.085 2.214 2.693 4.172 2.693 4.682 0 .426 1.303 2.299 2.172 2.469.868.17 1.476 3.065 1.737 3.746.26.681 2.779 5.023 3.3 6.811.522 1.787 2.693 5.363 3.214 6.299.521.937.956 3.661.956 4.427 0 .766 1.65 2.214 2.692 2.128 1.043-.085 3.04-6.384 3.562-8.683.434-2.299 2.084-4.257 2.605-4.257.435 0 .869-1.277.869-1.787 0-.511 2.606-.426 2.866-1.107.261-.681.956-4.767 1.911-5.449.956-.595 4.169-2.724 5.385-3.149 1.13-.426 4.083 2.128 4.778 3.235.695 1.191 1.216 4.086.955 4.597-.26.511 1.564 3.064 3.127 2.979 1.564-.085 2.085 1.958 2.085 2.639.087.681 2.171 2.81 2.519 3.661.434.937.26 3.405 0 4.001-.261.596-.087 3.831.173 4.768.261.936 5.125 5.703 6.949 7.151 1.824 1.447 2.693-2.98 1.737-4.342-.955-1.362-4.082-4.597-4.777-5.534-.782-.936-.869-4.767-.608-5.874.261-1.106 2.78.596 3.822 1.362 1.042.767 2.345 2.469 2.432 3.065 0 .596 6.514-2.979 6.688-6.81.261-3.831 2.345-8.173 2.606-9.195.174-1.021-.608-2.383-1.216-2.468-.521-.086.955-2.98 2.779-2.895 1.824.085 6.167-4.682 7.21-6.64 1.042-1.873 3.127-3.405 3.387-3.661.261-.255 1.737-4.682 1.998-6.555.261-1.873-1.042-4.767-1.216-5.704-.174-.936-1.737-3.15-2.172-3.831-.434-.681-.781-3.32-.521-3.746.261-.51 1.911-1.021 1.998-1.447.174-.425 2.085-2.383 1.911-3.235-.174-.851 1.129 1.107 1.998 1.788.868.681 1.824 5.278 2.866 5.789 1.042.511 5.298-4.853 4.777-8.343-.521-3.49 1.216-7.917 2.259-8.343.781-.255 2.779-3.065 4.169-5.108-9.468-26.731-25.102-50.568-45.254-69.978h-.695l-1.563-.341c-2.606-.51-4.169-3.32-3.735-3.916.174-.17.087-.681 0-1.192-1.477-1.277-2.953-2.554-4.517-3.83h-3.3c-1.564-.086-5.038-1.192-5.646-1.788-.608-.596-2.693.511-2.78 1.617-.173 1.107-3.735 1.618-4.082 2.469-.348.851-2.259.937-2.606.426-.347-.511-3.735 1.192-5.385 1.362-1.651.255-4.777 1.532-5.472 1.873-.782.34-2.519 2.043-2.78 2.724-.26.681-2.432 1.873-3.127 2.128-.695.256-.521 3.32.348 3.746.868.426-1.651-.34-2.78-.936-1.129-.511-2.345 1.277-2.693 1.958-.347.596-1.389-.426-1.302-1.277 0-.937-2.78-1.618-3.127-.937-.348.766-2.346-.255-3.127-.681-.782-.426-4.256 3.15-5.559 4.427-1.303 1.277-7.383 2.213-8.599 1.788-1.13-.511-2.259 2.639-1.303 2.894.955.171-2.519-.17-4.43 0-1.911.171-7.47 2.384-8.773 3.32-1.303.937-2.432-.255-2.432-.936 0-.766-2.085-1.447-2.779-1.618-.608-.17-1.824 4.087-2.954 4.853-1.129.851-2.432-3.32-5.037-4.001-2.606-.681-6.602-3.15-7.818-3.406-1.129-.34-3.474-2.639-4.082-3.32-.695-.681-3.996-1.277-5.038-1.277-1.042 0-4.517 1.958-5.385 2.639-.956.767-2.346.596-2.78.852-.434.255-4.343 4.001-5.819 5.193-1.477 1.192-4.17 6.214-4.951 7.406-.869 1.192-2.085 1.448-2.606 1.448-.521 0-.956 1.362-.956 1.872 0 .511-4.429 2.725-4.951 4.768-.434 1.958.435 6.47.435 8.087 0 1.618 1.65 4.768 2.866 4.853 1.216.085.608 2.724.261 3.49-.348.766.781 1.533.781 2.214s-3.127 1.532-4.082 1.873c-.955.34-2.519 2.468-2.693 3.235-.173.681-3.127 1.191-4.082 2.128.261-.681.608-1.618.869-2.128.608-1.022-.261-2.895-.695-3.235-.435-.426-.695-5.619-1.477-6.726-.782-1.107-2.606-3.065-3.127-3.405-.434-.341.348-1.788.608-2.299.261-.596-2.519-.936-3.214-.51-.781.425-1.129 5.618-1.476 7.065-.348 1.448 1.389 3.576 1.824 3.661.434.085.347 2.639-.608 2.724-.956.085-1.824 3.831-1.39 4.683.521.851-.695 2.554-1.303 2.894-.608.341 3.735.17 5.646.085 1.998-.085 3.474.852 3.301.937-.174.17-3.735.681-4.43 1.532-.608.851-3.04 2.384-3.475 3.065-.434.596.782 2.043 1.824 1.958 1.043-.085 2.172 3.49 2.954 4.086.781.681.521 2.469.173 2.98-.347.511-5.124-.341-6.948.085-1.824.426-4.17 4.256-4.256 5.619-.174 1.447.26 5.533.521 6.64.26 1.107 3.995 1.873 4.777 2.384.782.51 4.43 0 5.212.34.694.341 3.213-3.661 3.735-5.448.434-1.873 4.342-5.193 5.211-6.47.782-1.277 5.038-1.107 5.993-1.788 1.043-.681.435 3.15.956 5.193.521 2.043 4.517 1.788 3.908-.17-.608-1.958.435-2.81.522-2.044.173.682 3.995 2.214 4.777 3.321.695 1.106.521 3.405-.348 3.405-.868 0-.868 2.554 0 2.809.869.256 2.085-2.894 3.127-3.32.956-.511 1.738-2.469 1.303-2.639-.434-.17.869-1.958 1.39-1.362.521.596-2.085-3.831-3.735-5.449-1.65-1.617-.521-.936 2.606 1.618l2.085 2.894c.434.511.955 2.129 1.302 2.725l.522.851c.434 1.022.781 3.831.781 4.597 0 .766 1.651 2.214 2.693 2.128 1.042-.085 1.737.511 1.563.511-.173 0 .695 1.958 1.651 2.043.955 0 1.389-2.468.434-2.554-1.042-.085-.869-3.745-.955-5.278-.087-1.617.694-2.894 1.042-2.894.347 0-.087 3.235 0 4.001 0 .766.434 2.213.868 3.32l1.043.766 2.345 1.788c3.301-.936 7.817-.255 7.644.426-.174.681 2.432.851 2.605-.256.174-1.106.261 0 .261.766 0 .767-2.172 3.661-2.519 5.023-.347 1.362-8.078.426-11.379.171-3.3-.256-8.164.851-8.599 1.787-.347.937-5.559-2.213-7.904-3.235-2.345-1.021-4.256-4.512-4.69-4.937-.521-.426.434-1.618.174-2.299-.261-.681-5.646-.851-7.21-.255-1.563.596-9.641 1.447-11.639 2.213-1.911.851-4.777-.085-5.733-.17-.868-.17-3.04 2.469-4.082 2.894-1.129.426-2.519 4.172-3.04 8.173l-1.477 2.809-.955 1.788c-2.693 1.958-5.646 8.684-6.515 9.961-.868 1.362-1.563 10.896-1.563 14.131 0 3.235 2.866 10.046 3.648 11.919.782 1.873 5.733 6.044 7.47 7.066 1.65.936 7.035 1.106 8.86 1.106 1.737 0 3.734-1.617 4.429-3.66l2.606.255 1.216.085c.087 1.448 3.909 2.554 4.864 3.065.956.511 3.475.085 4.17-.085.781-.17 1.563 6.385 1.042 8.343-.521 1.873 1.303 8.598 1.911 10.641.521 2.044 2.866 7.577 3.127 9.535.26 1.958-1.39 8.598-1.651 10.897-.26 2.299 2.954 8.769 3.822 10.982.869 2.213 1.477 6.981 1.477 8.088 0 1.106 3.474 7.832 4.256 10.556 1.042 3.065 9.815 3.746 12.16 2.384zm151.657-81.897c.26.511 2.432-1.192 3.734-1.447 1.303-.171 2.172-3.661 1.13-3.917-1.043-.255-2.346-2.979-3.127-3.32-.782-.34-2.172 1.192-2.172 2.214.087 1.021-2.432 1.447-2.866 2.383-.434.852-.434 1.533.087 1.448.521-.085 2.953 2.213 3.214 2.639zm-2.78 18.984c.695-.255-.087-3.661-1.477-4.001-1.389-.255-5.211 4.512-4.429 7.321.695 2.724 1.563 2.554 1.911 2.043.434-.595 2.692.341 3.3.596.695.171.695-.425 0-1.447-.608-1.107.087-4.256.695-4.512zm-7.47-3.405c.174-1.192.434-5.108.608-5.874s-2.171-2.98-3.301-3.405c-1.129-.426-4.864 7.491-7.469 8.853-2.693 1.362-3.649 6.215-2.954 7.322.695 1.106 6.254 1.702 7.21 2.554.955.851 2.084-.171 2.605-.256.608-.17.435-.511.174-.681-.26-.17 1.911-2.384 2.259-3.831.347-1.277.694-3.405.868-4.682zm-15.113 13.195c-2.085-.766-4.517.426-4.691 1.192-.173.766 7.991 2.043 10.771 2.809 2.692.767 4.43.937 3.822.511-.695-.511-7.818-3.746-9.902-4.512zm16.677-52.441c.695-.851-.956-5.108-1.738-4.171-.781.936-.173 3.405 0 4.256.348.852 1.043.766 1.738-.085zm4.951 9.024c.434-1.107-.608-2.298-2.346-2.639-1.824-.341-1.563 4.852-.694 5.534.694.681 2.605-1.788 3.04-2.895zm9.294 32.52c2.171 1.448 6.861.767 7.035-2.043-2.084-1.362-7.209-1.106-7.035 2.043zm-1.13-64.359c-.868.596-1.389 2.128-1.042 2.809h-.347c-.695 0-.782 2.724 0 3.235.695.426 2.519-2.128 3.474-2.809.955-.596 2.779-1.022 3.127-.766.261.17 1.911-.256 3.648-1.107.347-.17.695-.596 1.042-1.192-.434-2.043-.868-4.001-1.389-5.959-.869.681-1.911 1.362-2.346 1.702-1.129.852-5.037 3.321-6.167 4.087zm-48.641 55.335c-.434-.255-.347-.255 0 0zM318.34 482.8c-.782-1.702-3.301-4.597-5.646-6.385l-.869-1.447-.955-1.617c-.869-1.703-3.474-3.065-3.735-3.576-.261-.511-1.042 1.532-1.998.936.434.341 1.477 1.022 2.867 1.958 2.432 1.703 7.209 13.451 8.338 14.303 1.042.851 2.78-2.469 1.998-4.172zm-37.958-18.984c-.695 1.362 3.561 4.171 3.822 3.49.348-.681-.521-3.916-1.303-4.597-.695-.681-1.824-.17-2.519 1.107zm-55.503 62.742c.174 1.362 3.04 2.469 3.909 2.298.868-.255 3.214-4.426 3.474-5.618.348-1.192.608-3.831.608-4.427 0-.596.348-2.043.695-2.213.348-.171.869-1.618 1.129-3.15.348-1.618-1.737-9.024-1.824-10.301-.087-1.277-1.563.681-1.911 1.958-.434 1.277-4.169 4.001-5.038 5.108-.868 1.106-1.737 4.937-1.389 5.533.347.681-.348 3.235-.695 3.916-.348.681.868 5.534 1.042 6.896zM89.292 577.807h2.519c.434-2.724-2.693-2.213-2.52 0zm67.403-278.892c-1.043.086-3.822-.425-4.257-.936-.434-.511-4.603-.936-5.732-.426-1.216.511-.348-2.809 1.303-3.149 1.65-.341.26-2.64-1.477-2.64s-6.08-.681-7.122-.425c-1.043.255-3.041-.681-3.735-.766-.695-.086-5.907 1.532-8.426 1.447-2.432-.085-8.512.17-9.815.511-1.303.34-2.258 2.894-2.084 3.745.173.937-5.82.852-7.731.937-1.911 0-12.073 2.128-14.68 3.575-2.605 1.448-4.69 5.108-3.821 5.108.869.085-1.477 2.129-2.866 2.639-1.39.511-4.778.681-5.646 1.448-.782.766.868 1.277 1.129 1.873.347.51 1.216-.426 2.171.085.87.51 3.822.766 4.604 1.021.782.341-2.519.937-4.082 1.022-1.564.085-1.216 3.065.087 3.49 1.302.426 4.516.852 4.864.341.347-.511 3.821.596 5.472.766 1.563.17 2.78 4.086 3.3 4.938.522.851.608 3.831.435 4.682-.087.851 2.779 2.384 3.3 1.873.522-.511.348 1.362-.781 1.277-1.13-.085-.435 3.235 1.042 3.66 1.39.511.434 2.469-.348 3.15-.868.596-.347 2.554-1.216 3.235-.868.681 3.041 7.236 3.041 10.642 0 3.405 2.171 6.129 2.953 6.129.868 0 3.648.681 3.995 1.362.348.681 1.737-.51 2.259-1.021.521-.511 1.65-2.214 2.519-3.576.868-1.447 2.779-8.172 3.04-8.939.26-.766 3.474-.255 4.256-.681.695-.34 2.866-2.043 3.474-2.468.608-.511 5.212-2.384 6.515-3.321 1.216-.851 3.387-4.767 4.343-5.533.955-.852-.522-.596-1.738-1.362-1.216-.766-.695-1.788-.347-2.129.347-.34 4.082.596 5.385 1.107s3.735-1.277 2.78-1.958c-.956-.681-.435-.681 0-.34.434.255.955-2.214.434-2.725-.521-.51 3.735-3.575 3.04-6.385-.782-2.894 1.129-5.874 2.345-5.874 1.129 0 .782-3.235-.521-3.575-1.39-.341-.087-.596.434-1.022.522-.425 1.13-3.32.869-3.916-.347-.596 2.085-1.192 2.519-1.873.434-.681 3.214-1.958 4.169-2.128.869-.511 1.39-2.98.348-2.895zm23.886 2.384c-1.303-.425-3.996 1.022-3.648 1.788.347.851-2.172-1.022-3.909-.17-1.737.936-2.258 3.916-1.39 4.256.782.426 1.39 2.81 1.39 3.235 0 .511 3.388.171 4.256-.596.869-.681.695 2.384-.087 3.235-.868.852.261 2.554 1.216 2.639.956.171 2.259 2.299 3.214 2.299.956 0 2.606-3.661 2.953-5.023.348-1.362 3.562-.255 5.038.171 1.477.425 1.998-5.023.435-5.875-1.564-.766-3.562-.425-4.257-1.021-.694-.596-1.737-1.192-2.518-1.277-.695 0-1.39-3.235-2.693-3.661zm12.855 2.554c2.606.341 5.472-1.702 6.167-2.298.608-.596-7.209-2.129-10.162-2.214-2.954-.085-5.386.341-5.299.851 0 .596 6.688 3.321 9.294 3.661zm-47.338 68.787c-.695-.256-1.043 2.213-.869 3.15.174.936 2.519.851 3.561.681 1.043-.171 1.824-.937 1.738-1.788-.087-.852-1.477-4.597-2.085-4.597-.521.085-1.65 2.809-2.345 2.554zm7.73-29.201c-.521-.936-4.603-.851-5.559-.851-.955-.085-3.995-1.021-4.603-1.703-.521-.595-1.043 2.469-1.911 2.895-.956.426.434 1.022.868.681.348-.341 0 1.618-.434 2.213-.434.681 2.693 1.107 3.04 2.129.348 1.021 1.65 1.617 2.867 1.447 1.216-.17 3.648-1.447 4.516-1.532.782-.171 1.737-4.342 1.216-5.279zm85.47-22.9c1.39-1.362 7.122-3.235 7.817-4.682.608-1.448-.434-2.554-.955-2.554-.608 0-1.303.681-1.39.936-.174.256-6.775 1.788-8.773 2.724-2.084.937-4.43 2.469-5.211 3.321-.869.851-2.259 7.236-2.78 8.002-.521.681 2.172 3.32 3.388 4.086 1.216.681 2.866.341 3.3.171.435-.171-.608-4.598-1.216-6.215-.782-1.532 4.43-4.342 5.82-5.789zm-7.123-16.686c2.172 2.128 3.388-.936 5.733-.681 0-4.256-5.906-2.809-5.733.681zm42.301.766c-.087.767 5.993 1.448 7.817 1.107 1.737-.34-.347-2.98-2.953-2.894-2.693.255-4.864 1.021-4.864 1.787zM54.461 348.803c-.608.596-.087 3.49 1.13 3.575 1.215.085 3.126-4.427 4.603-3.49 1.476.936 2.519 1.277 2.258.766-.26-.511-4.517-2.299-5.038-2.639-.52-.255-2.345 1.277-2.953 1.788zm15.548 98.923c0 .511 2.693.426 3.127-.341.434-.766.174-1.447-.521-1.447-.782-.085-2.606 1.277-2.606 1.788zm-11.813-4.257c1.303-.255.695 1.788.956 2.469.347.681 3.387 1.277 3.995 1.788.608.511 2.172-.937 3.388-.766 1.216.17-.435-4.087-2.432-4.002-1.998.171-3.648-1.787-4.083-2.043-.521-.17-2.866-1.617-3.561-2.128-.695-.511-5.82-1.022-7.644-1.022-1.737 0-3.735 1.788-3.995 2.299-.26.596 2.78.936 3.648.511.868-.426 5.038.511 5.82 1.447.868 1.022 2.605 1.618 3.908 1.447zm-5.559 4.257c0 .511 2.693.17 3.3.17.696 0 .609-.426-.086-.936-.608-.511-3.214.255-3.214.766zm1.911-13.536c-.695-.255-1.216.766-1.216 1.277 0 .511.347.936.869.936.434.085 1.042-1.873.347-2.213zm5.559.426c-.26-.511-1.39-.937-1.737-.937-.348 0-.608.851-.521 1.958.087 1.107 2.519-.511 2.258-1.021zm4.082 6.129c1.043-.511 1.216-1.788.608-1.703-.608.086-1.824-1.787-2.518-2.128-.695-.255-1.303 1.107-1.303 1.788 0 .596.434 1.021.868.936.434-.17 1.216 1.618 2.345 1.107zm298.71 41.119c-.522.255-3.214.596-3.562.085-.347-.511-.868 1.107-1.476 1.362-.608.255-.261 1.617.608 1.192.608-.256 3.127 1.107 5.211 2.384.435-2.044.782-4.087 1.13-6.13-.782.426-1.564.936-1.911 1.107z" fill="url(#paint2_radial_66_276)"/><mask id="mask0_66_276" style="mask-type:alpha" maskUnits="userSpaceOnUse" x="5" y="196" width="431" height="397"><path d="M435.669 343.043L113.5 196.027 5.85 445.361l322.168 147.016 107.651-249.334z" fill="url(#paint3_radial_66_276)"/></mask><path d="M230.09 276.526a59.376 59.376 0 00-9.38-2.809c-28.49-6.215-58.804 8.087-84.862 36.266-25.71 27.753-47.251 69.042-58.63 117.311 0 .085 0 .171-.087.171-11.378 48.269-10.423 94.496.26 130.251 9.816 32.691 27.796 56.698 52.203 65.637-23.712-9.28-41.258-33.031-50.9-65.126-10.683-35.67-11.639-81.897-.26-130.252 0-.085 0-.17.087-.17 11.379-48.27 33.006-89.559 58.63-117.312 26.058-28.178 56.459-42.48 84.862-36.266a47.915 47.915 0 018.077 2.299z" fill="url(#paint4_linear_66_276)"/><path d="M5.212 499.571c.087 3.15.434 6.385 1.129 9.535 5.559 28.008 31.009 49.461 67.663 61.55 36.134 11.918 83.212 14.728 132.721 5.704h.174c49.51-9.109 92.245-28.349 121.256-52.186 26.579-21.794 41.692-47.503 40.302-72.873.782 24.944-14.331 50.143-40.389 71.596-29.011 23.837-71.659 43.077-121.256 52.186h-.173c-49.51 9.024-96.675 6.214-132.721-5.704-36.655-12.089-62.105-33.542-67.664-61.55-.608-2.81-.955-5.534-1.042-8.258z" fill="url(#paint5_linear_66_276)"/><g opacity=".5" fill="#fff"><path opacity=".5" d="M280.294 564.867c-7.817 0-14.244-6.3-14.244-13.962 0-7.661 6.427-13.961 14.244-13.961 7.818 0 14.245 6.3 14.245 13.961 0 7.662-6.34 13.962-14.245 13.962zm0-27.838c-7.817 0-14.158 6.215-14.158 13.876 0 7.662 6.341 13.877 14.158 13.877 7.818 0 14.158-6.215 14.158-13.877 0-7.661-6.34-13.876-14.158-13.876z"/><path opacity=".5" d="M280.294 559.249c-4.691 0-8.512-3.746-8.512-8.343 0-4.597 3.821-8.343 8.512-8.343 4.69 0 8.512 3.746 8.512 8.343.087 4.597-3.735 8.343-8.512 8.343zm0-16.601c-4.604 0-8.426 3.661-8.426 8.258 0 4.512 3.735 8.258 8.426 8.258 4.603 0 8.425-3.661 8.425-8.258 0-4.597-3.735-8.258-8.425-8.258z"/></g><path d="M291.152 311.855c-13.984-39.245-35.525-62.231-60.628-64.785-18.501-1.958-36.654 5.193-54.2 24.348.695 0 1.39-.085 2.085-.085 16.937-18.048 34.309-24.603 51.942-22.816 24.494 2.469 45.601 25.199 59.324 63.849 14.072 39.586 18.675 90.836 12.942 144.299-5.819 53.462-21.193 102.668-43.429 138.509-21.715 34.989-47.165 52.952-71.659 50.398-11.379-1.192-22.149-6.811-31.704-16.431-.955-.085-1.737-.255-2.432-.34 10.25 10.726 21.715 17.026 34.049 18.303 1.564.17 3.127.256 4.69.256 23.626 0 47.773-18.048 68.446-51.335 22.322-36.011 37.87-85.472 43.69-139.105 5.646-53.803 1.042-105.308-13.116-145.065z" fill="url(#paint6_linear_66_276)"/><path d="M330.152 282.485c-19.109-18.729-53.245-20.687-96.067-5.533-.608.255-1.216.425-1.824.681l2.606.766c42.127-14.898 75.568-13.025 94.156 5.193 18.588 18.218 20.498 51.079 5.211 92.453-15.634 42.396-47.164 88.197-88.944 129.145-41.779 40.863-88.509 71.851-131.765 87.175-42.214 14.983-75.742 13.11-94.33-5.108-16.329-16.005-19.717-43.928-9.728-78.832-.26-.681-.608-1.873-.868-2.724-11.031 36.521-7.73 65.807 9.467 82.663 10.597 10.386 25.798 15.579 44.56 15.579 15.026 0 32.398-3.32 51.507-10.131 43.429-15.409 90.42-46.482 132.373-87.515l.087-.085c41.866-41.034 73.57-87.09 89.292-129.656 15.374-41.885 13.376-75.342-5.733-94.071z" fill="url(#paint7_linear_66_276)"/><g opacity=".1" filter="url(#filter0_b_66_276)"><path d="M231.588 301.409l105.202 50.488-62.856 76.66-119.642-64.719 77.296-62.429z" fill="#F1F3F8"/></g><g opacity=".1" filter="url(#filter1_b_66_276)"><path d="M396.366 198.135l-59.665 154.17-62.764 76.252 122.429-230.422z" fill="#C4C4C4"/><path d="M396.366 198.135l-59.665 154.17-62.764 76.252 122.429-230.422z" fill="url(#paint8_linear_66_276)"/></g><g opacity=".1" filter="url(#filter2_b_66_276)"><path d="M394.804 200.585l-163.2 101.888-77.021 61.531 240.221-163.419z" fill="#F1F3F8"/></g><g opacity=".2" filter="url(#filter3_b_66_276)"><path d="M395.341 200.159L274.457 429.345l-119.434-65.097 240.318-164.089z" fill="url(#paint9_linear_66_276)"/></g><path d="M476.918 102.108c-.114-.282-.114-.282 0 0l-.114-.282c-.115-.282.18-.409.066-.691.18-.409.18-.409.475-.536.18-.41.475-.537.884-.383l51.646 5.142c.294-.128.409.154.638.717.343.845.097 1.945-.378 2.482-.475.537-.769.664-.884.383 0 0 .115.281.409.154l-51.645-5.142c-.295.127-.41-.154-.639-.718-.638-.717-.752-.999-.458-1.126zm51.695 6.114l-.229-.563.229.563z" fill="url(#paint10_linear_66_276)"/><path d="M425.918 91.108c-.114-.282-.114-.282 0 0l-.114-.282c-.115-.281.18-.41.066-.69.18-.41.18-.41.475-.537.18-.41.475-.537.884-.383l51.646 5.142c.294-.128.409.154.638.717.343.845.097 1.945-.378 2.482-.475.537-.769.664-.884.383 0 0 .115.281.409.154l-51.645-5.142c-.295.127-.41-.154-.639-.718-.638-.717-.752-.999-.458-1.126zm51.695 6.114l-.229-.563.229.563z" fill="url(#paint11_linear_66_276)"/><path d="M504.002 82.459l2.292-3.048c.352-.469.944-.76 2.014-.695l-2.292 3.047c-.831.113-1.662.227-2.014.696z" fill="#4074E4"/><path d="M506.648 80.506l2.196-2.986 98.886 11.42-1.548 3.06-99.534-11.495zm103.163 14.556l2.198-2.988 17.179 42.322-2.198 2.987-17.179-42.321z" fill="#4074E4"/><path d="M605.441 91.653l2.197-2.987c1.835.342 3.826 1.89 4.647 3.61l-2.197 2.987c-.599-1.549-2.812-3.267-4.647-3.61z" fill="#4074E4"/><path d="M503.657 83.054c-.815-1.712.198-3.09 2.025-2.756l99.42 11.383c1.828.334 3.809 1.868 4.624 3.58l16.834 41.495c.815 1.712-.197 3.09-2.025 2.756l-99.42-11.383c-1.827-.334-3.809-1.868-4.624-3.58l-16.834-41.495z" fill="#1C4296"/><path d="M606.999 94.243c.661.51 1.153 1.252 1.424 1.822l16.831 41.486c.272.57.103.8.103.8l-.778.118-99.227-11.599c-.609-.112-1.438-.393-2.099-.904-.66-.512-1.152-1.252-1.423-1.823l-16.832-41.485c-.271-.57-.103-.8-.103-.8l.778-.119 99.396 11.37c.609.111 1.27.622 1.93 1.134z" fill="#1C4296"/><path d="M555.767 121.637l2.097 5.591c.541 1.14 1.861 2.161 2.86 2.212l5.823.536c1.219.221 1.896-.699 1.355-1.839l-2.097-5.591c-.541-1.141-1.861-2.162-2.86-2.213l-5.823-.535c-1.389.009-1.897.698-1.355 1.839zm-11.698-1.471l2.098 5.591c.541 1.141 1.861 2.162 2.86 2.213l6.043.705c1.219.221 1.896-.698 1.355-1.838l-2.097-5.592c-.541-1.14-1.862-2.161-2.86-2.212l-6.213-.476c-.999-.051-1.507.639-1.186 1.609zm-11.646-1.071l2.097 5.592c.541 1.14 1.861 2.161 2.86 2.212l5.823.536c1.219.221 1.897-.699 1.355-1.839l-2.097-5.591c-.541-1.141-1.861-2.162-2.86-2.213l-5.823-.535c-1.219-.221-1.727.468-1.355 1.838zm-11.697-1.47l2.097 5.591c.541 1.141 1.861 2.162 2.86 2.213l5.823.535c1.219.221 1.897-.698 1.355-1.839l-2.097-5.591c-.541-1.14-1.861-2.162-2.86-2.212l-5.823-.536c-1.219-.221-1.896.699-1.355 1.839zm90.226 8.811l5.823.536c1.219.221 2.539 1.242 2.86 2.212l2.098 5.592c.541 1.14-.137 2.059-1.355 1.838l-5.824-.535c-1.218-.221-2.538-1.242-2.86-2.213l-2.097-5.591c-.372-1.37.136-2.06 1.355-1.839zm-12.883.139l2.097 5.591c.542 1.14 1.862 2.162 2.861 2.213l6.043.705c1.219.221 1.896-.698 1.355-1.839l-2.097-5.591c-.542-1.14-1.862-2.162-2.86-2.212l-5.824-.536c-1.388.009-1.896.698-1.575 1.669zm-11.646-1.071l2.097 5.592c.541 1.14 1.861 2.161 2.86 2.212l5.823.535c1.219.221 1.897-.698 1.355-1.838l-2.097-5.592c-.541-1.14-1.861-2.161-2.86-2.212l-5.823-.535c-1.219-.222-1.896.698-1.355 1.838zm-11.697-1.47l2.097 5.591c.541 1.14 1.861 2.162 2.86 2.212l5.823.536c1.219.221 1.896-.699 1.355-1.839l-2.097-5.591c-.541-1.141-1.861-2.162-2.86-2.213l-5.823-.535c-1.219-.221-1.897.698-1.355 1.839zm32.083-8.38l5.653.765c1.219.221 2.539 1.242 2.861 2.212l2.097 5.592c.541 1.14-.137 2.059-1.355 1.838l-5.824-.535c-1.218-.221-2.538-1.242-2.86-2.213l-2.097-5.591c-.372-1.37.306-2.289 1.525-2.068zm-13.053.368l2.098 5.591c.541 1.141 1.861 2.162 2.86 2.213l5.823.535c1.219.221 1.896-.698 1.355-1.839l-2.097-5.591c-.542-1.141-1.862-2.162-2.86-2.213l-5.824-.535c-1.388.009-1.896.698-1.355 1.839zm-11.697-1.471l2.097 5.592c.542 1.14 1.862 2.161 2.861 2.212l5.823.535c1.219.221 1.896-.698 1.355-1.838l-2.097-5.592c-.542-1.14-1.862-2.161-2.86-2.212l-5.824-.535c-1.168.178-1.676.868-1.355 1.838zm-11.697-1.47l2.317 5.761c.542 1.141 1.862 2.162 2.86 2.213l5.824.535c1.218.221 1.896-.698 1.355-1.839l-2.097-5.591c-.542-1.14-1.862-2.162-2.861-2.213l-5.823-.535c-1.388.009-1.896.698-1.575 1.669zm30.728-6.542l2.097 5.592c.541 1.14 1.861 2.161 2.86 2.212l5.823.535c1.219.221 1.897-.698 1.355-1.838l-2.097-5.592c-.541-1.14-1.861-2.161-2.86-2.212l-5.823-.535c-1.168.179-1.676.868-1.355 1.838zm-11.647-1.07l2.098 5.591c.541 1.141 1.861 2.162 2.86 2.213l6.043.705c1.219.221 1.896-.698 1.355-1.839l-2.097-5.591c-.541-1.14-1.862-2.162-2.86-2.212l-5.824-.536c-1.438-.391-2.116.528-1.575 1.669zm-11.697-1.471l2.097 5.592c.542 1.14 1.862 2.161 2.861 2.212l5.823.535c1.219.221 1.896-.698 1.355-1.838l-2.097-5.592c-.542-1.14-1.862-2.161-2.86-2.212l-5.824-.535c-1.218-.222-1.896.698-1.355 1.838zm-11.697-1.47l2.097 5.591c.542 1.14 1.862 2.162 2.86 2.212l5.824.536c1.218.221 1.896-.698 1.355-1.839l-2.097-5.591c-.542-1.141-1.862-2.162-2.861-2.213l-5.823-.535c-1.388.009-1.896.698-1.355 1.839zm30.728-6.542l2.097 5.592c.541 1.14 1.862 2.161 2.86 2.212l5.824.535c1.218.221 1.896-.698 1.354-1.838l-2.097-5.592c-.541-1.14-1.861-2.161-2.86-2.212l-5.823-.535c-1.388.008-1.896.698-1.355 1.838zm-11.697-1.47l2.097 5.591c.541 1.141 1.861 2.162 2.86 2.213l5.823.535c1.219.221 1.897-.698 1.355-1.839l-2.097-5.591c-.541-1.14-1.861-2.162-2.86-2.213l-5.823-.535c-1.168.179-1.676.868-1.355 1.839zm-11.477-1.3l2.097 5.59c.541 1.141 1.861 2.162 2.86 2.213l5.823.535c1.219.222 1.897-.698 1.355-1.838l-2.097-5.592c-.541-1.14-1.861-2.161-2.86-2.212l-5.823-.535c-1.388.008-1.897.698-1.355 1.838zm-11.867-1.241l2.097 5.591c.542 1.14 1.862 2.162 2.861 2.212l5.823.536c1.219.221 1.896-.698 1.355-1.839l-2.097-5.591c-.542-1.14-1.862-2.162-2.861-2.213l-5.823-.535c-1.219-.221-1.896.698-1.355 1.839zm-10.282 19.109l2.266 5.361c.541 1.141 1.861 2.162 2.86 2.213l5.823.535c1.219.221 1.897-.698 1.355-1.839l-2.097-5.591c-.541-1.141-1.861-2.162-2.86-2.213l-5.823-.535c-1.388.009-2.066.928-1.524 2.069zm-11.697-1.471l2.097 5.591c.541 1.141 1.861 2.162 2.86 2.213l5.823.535c1.219.221 1.896-.698 1.355-1.839l-2.097-5.591c-.541-1.14-1.862-2.161-2.86-2.212l-5.824-.536c-1.218-.221-1.896.699-1.354 1.839zm-11.698-1.471l2.097 5.592c.542 1.14 1.862 2.161 2.861 2.212l5.823.536c1.219.221 1.896-.699 1.355-1.839l-2.047-5.191c-.541-1.141-1.861-2.162-2.86-2.213l-5.823-.535c-1.219-.221-1.727.468-1.406 1.438zm-11.697-1.47l2.317 5.762c.542 1.14 1.862 2.161 2.86 2.212l5.824.535c1.219.221 1.896-.698 1.355-1.838l-2.097-5.592c-.542-1.14-1.862-2.161-2.861-2.212l-5.823-.536c-1.388.009-1.896.699-1.575 1.669zm30.728-6.541l2.097 5.591c.541 1.14 1.862 2.161 2.86 2.212l5.824.536c1.218.221 1.896-.699 1.355-1.839l-2.098-5.591c-.541-1.14-1.861-2.162-2.86-2.213l-5.823-.535c-1.168.179-1.676.868-1.355 1.839zm-11.646-1.071l2.097 5.591c.541 1.141 1.861 2.162 2.86 2.213l6.043.705c1.219.221 1.896-.698 1.355-1.838l-2.097-5.592c-.541-1.14-1.861-2.161-2.86-2.212l-5.823-.535c-1.439-.392-2.117.528-1.575 1.668zm-11.698-1.47l2.098 5.591c.541 1.14 1.861 2.161 2.86 2.212l5.823.536c1.219.221 1.896-.699 1.355-1.839l-2.097-5.591c-.542-1.14-1.862-2.162-2.86-2.213l-5.824-.535c-1.218-.221-1.896.698-1.355 1.838zm-11.697-1.471l2.097 5.591c.542 1.141 1.862 2.162 2.861 2.213l5.823.535c1.219.221 1.896-.698 1.355-1.839l-2.097-5.591c-.542-1.14-1.862-2.162-2.86-2.212l-5.824-.536c-1.168.18-1.676.869-1.355 1.839zm30.728-6.541l2.097 5.591c.542 1.14 1.862 2.162 2.86 2.212l5.824.536c1.218.22 1.896-.699 1.355-1.839l-2.098-5.591c-.541-1.14-1.861-2.162-2.86-2.213l-5.823-.535c-1.219-.221-1.896.698-1.355 1.839zm-11.697-1.471l2.097 5.591c.541 1.14 1.861 2.162 2.86 2.213l5.823.535c1.219.221 1.897-.698 1.355-1.838l-2.097-5.592c-.541-1.14-1.861-2.161-2.86-2.212l-5.823-.536c-1.168.18-1.676.869-1.355 1.839zm-11.477-1.3l2.097 5.591c.541 1.14 1.861 2.162 2.86 2.213l5.823.535c1.219.22 1.897-.698 1.355-1.839l-2.097-5.591c-.541-1.14-1.861-2.162-2.86-2.213l-5.823-.535c-1.388.009-1.896.698-1.355 1.839zm-11.867-1.241l2.097 5.591c.542 1.14 1.862 2.162 2.861 2.213l5.823.535c1.219.221 1.896-.698 1.355-1.839l-2.097-5.591c-.542-1.14-1.862-2.161-2.86-2.212l-5.824-.536c-1.218-.22-1.896.698-1.355 1.839z" fill="url(#paint12_linear_66_276)"/><path d="M555.705 86.583c-.61-.11-1.389.009-2.218-.272l18.808 46.664 3.606.264-18.588-46.494c-.779.119-.999-.051-1.608-.162z" fill="#1C4296"/><path opacity=".8" d="M530.174 113.721l-1.237-3.488 2.716-3.681 3.614.266c1.221.223 2.544 1.247 2.865 2.219l2.101 5.602c.542 1.143-.137 2.063-1.358 1.841l-5.835-.541c-1.222-.223-2.544-1.246-2.866-2.218zm4.381-7.815c1.221.222 1.9-.698 1.358-1.841l-1.085-2.285-2.716 3.681 2.443.445zm16.74 5.006l2.271 5.372 4.923-6.672-5.666-.771c-1.391.008-2.07.928-1.528 2.071zm-8.848-13.356l-4.054-.608-2.377 3.221 1.678 3.829c.542 1.143 1.865 2.167 2.866 2.218l5.716 1.172c1.221.222 1.9-.698 1.358-1.841l-2.101-5.602c-.542-1.143-1.865-2.167-3.086-2.389zm9.507 18.565l-2.1-5.602c-.543-1.143-1.865-2.167-2.866-2.219l-5.835-.54c-1.222-.223-1.901.698-1.359 1.84l2.101 5.603c.542 1.142 1.865 2.166 2.866 2.218l5.835.541c1.222.222 1.901-.698 1.358-1.841zm7.181-9.262l-2.101-5.603c-.542-1.142-1.865-2.166-2.866-2.218l-5.835-.54c-1.221-.223-1.9.697-1.358 1.84l2.101 5.602c.542 1.143 1.864 2.167 2.865 2.219l5.836.54c1.391-.007 1.9-.698 1.358-1.84zm-26.911 12.063l2.101 5.602c.542 1.143 1.865 2.167 2.865 2.219l5.836.541c1.221.222 1.9-.698 1.358-1.841l-2.101-5.602c-.542-1.143-1.865-2.167-2.866-2.219l-5.835-.54c-1.221-.223-1.731.467-1.358 1.84zm64.491-23.097l2.101 5.602c.542 1.143 1.865 2.167 2.865 2.219l5.446.6 1.527-2.071-2.05-5.201c-.542-1.143-1.865-2.167-2.865-2.219l-5.836-.54c-1.221-.223-1.73.467-1.188 1.61zm2.709 10.411c-.542-1.143-1.865-2.167-2.866-2.218l-5.835-.541c-1.221-.223-1.9.698-1.358 1.84l2.101 5.603c.542 1.143 1.865 2.166 2.865 2.218l6.056.712 1.188-1.611-2.151-6.003zm-12.43 24.357l-2.1-5.602c-.543-1.143-1.865-2.167-2.866-2.219l-5.835-.54-.221-.171-1.188 1.611.22.17 2.101 5.603c.542 1.142 1.865 2.166 2.866 2.218l5.835.541c.831.281 1.51-.639 1.188-1.611zm-66.325-40.135l.813 1.714c.271.571.983 1.484 1.815 1.766l5.262-7.132c-.661-.512-1.323-1.024-2.154-1.306l-2.001-.104-3.735 5.062zm74.374 23.593c-1.221-.223-1.9.698-1.358 1.84l1.779 4.631 4.244-5.752-4.665-.719zm-13.079.358l2.101 5.603c.542 1.142 1.865 2.166 2.866 2.218l5.835.541c.22.17.39-.06.611.111l.848-1.151s-.05-.4-.271-.571l-2.101-5.602c-.542-1.143-1.864-2.167-2.865-2.219l-5.836-.54c-.39.059-.61-.112-.78.119l-.679.92c.22.171.051.401.271.571zm-60.535-17.94c-.491-.742-1.594-1.595-2.374-1.477l-1.442-.393-4.074 5.522.373 1.373c.322.972 1.203 1.654 2.034 1.936 2.088-2.36 3.786-4.66 5.483-6.961zm61.962 15.068l5.445.6c1.221.223 1.9-.698 1.358-1.84l-2.05-5.202-4.753 6.442zm29.374 13.701l3.443.497c1.222.222 1.901-.698 1.358-1.841l-1.406-3.257-3.395 4.601zm-43.97-34.759l-5.835-.54c-1.221-.223-1.9.698-1.358 1.84l2.101 5.603c.491.742 1.373 1.424 2.425 1.877l5.262-7.133c-.712-.912-1.764-1.365-2.595-1.647zm32.24 15.92l1.729 4.229 3.904-5.291-4.224-.378c-1.221-.222-1.73.468-1.409 1.44zm-10.854-4.065l5.665.771c1.222.222 1.901-.698 1.358-1.841l-2.27-5.372-4.753 6.442zm-71.668-8.484c1.221.222 1.9-.698 1.358-1.84l-.221-.172c-.339.46-.848 1.15-1.137 2.012zm23.392 2.563c1.221.223 1.9-.698 1.358-1.84l-1.136-2.686-3.055 4.14 2.833.386zm1.241-5.907l1.728 4.23c.542 1.142 1.865 2.166 2.866 2.218l5.835.54c1.221.223 1.901-.697 1.358-1.84l-2.1-5.602c-.543-1.143-1.865-2.167-2.866-2.219l-4.444-.548-2.377 3.221zm39.307 29.343l-1.779-4.631-4.243 5.752 4.834.489c1.221.223 1.731-.468 1.188-1.61zm-31.094-.574l-.22-.171-6.056-.711c-1.221-.222-1.901.698-1.358 1.841l2.1 5.602.221.171c1.918-2.13 3.615-4.431 5.313-6.732zm-23.017-5.888l-.644-1.944-2.546 3.451 2.002.103c1.221.223 1.73-.467 1.188-1.61zm-2.703 11.644l5.835.54c1.221.223 1.9-.698 1.358-1.84l-2.1-5.603c-.543-1.142-1.865-2.166-2.866-2.218l-3.223-.326-2.886 3.911 1.186 3.087c.203 1.603 1.525 2.627 2.696 2.449zm96.299 9.838l-2.101-5.602c-.542-1.143-1.865-2.167-2.866-2.219l-4.834-.489-2.037 2.761 1.778 4.63c.543 1.143 1.865 2.167 2.866 2.219l5.836.541c1.391-.008 1.9-.698 1.358-1.841zm-29.19-10.666l-5.055-.66c-1.221-.222-1.9.698-1.358 1.841l2 4.801 4.413-5.982zm17.468 9.184l-1.186-3.087-3.225 4.371 3.223.326c1.221.223 1.731-.468 1.188-1.61z" fill="url(#paint13_linear_66_276)"/><path d="M626.578 136.79l2.345-2.74c.363 1.001.249 1.647-.103 2.116l-2.487 2.969c.352-.468.369-1.522.245-2.345zM506.561 80.642l2.06-2.775c-1.014-.154-2.201-.13-2.547.343l-2.241 2.968c.346-.473 1.937-.48 2.728-.536zm-174.486-19.21l2.126-3.159c.327-.486.928-.787 2.076-.72l-2.125 3.159c-.875.117-1.75.234-2.077.72z" fill="#4074E4"/><path d="M334.727 59.236l2.022-3.087 106.417 11.997-1.324 3.164-107.115-12.074zm111.245 15.067l2.024-3.088 22.741 43.836-2.023 3.088-22.742-43.835z" fill="#4074E4"/><path d="M441.04 70.776l2.022-3.087c1.989.357 4.272 1.963 5.328 3.746l-2.022 3.088c-.802-1.605-3.339-3.389-5.328-3.746z" fill="#4074E4"/><path d="M331.731 61.877c-1.047-1.773-.115-3.197 1.865-2.849l106.97 11.955c1.979.349 4.249 1.94 5.297 3.712l22.283 42.971c1.047 1.772.115 3.196-1.864 2.848l-106.97-11.955c-1.98-.349-4.25-1.94-5.297-3.712l-22.284-42.97z" fill="#1C4296"/><path d="M442.853 73.637c.756.53 1.357 1.298 1.706 1.889l22.279 42.959c.349.591.194.828.194.828l-.815.121-106.786-12.178c-.66-.116-1.572-.408-2.328-.939-.757-.53-1.358-1.297-1.707-1.888L333.117 61.47c-.349-.59-.194-.828-.194-.828l.815-.121L440.68 72.46c.66.116 1.416.646 2.173 1.176z" fill="#1C4296"/><path d="M391.23 101.901l2.818 5.79c.696 1.181 2.207 2.24 3.275 2.294l6.252.562c1.32.23 1.944-.72 1.249-1.901l-2.818-5.79c-.696-1.181-2.208-2.24-3.276-2.294l-6.252-.562c-1.476.007-1.944.72-1.248 1.901zm-12.6-1.539l2.818 5.79c.696 1.181 2.208 2.24 3.276 2.294l6.504.739c1.319.23 1.944-.72 1.248-1.901l-2.818-5.79c-.696-1.181-2.207-2.24-3.275-2.294l-6.66-.501c-1.068-.054-1.536.659-1.093 1.663zm-12.503-1.124l2.818 5.79c.695 1.181 2.207 2.24 3.275 2.294l6.252.562c1.32.23 1.944-.72 1.249-1.901l-2.819-5.79c-.695-1.181-2.207-2.24-3.275-2.294l-6.252-.562c-1.32-.23-1.788.482-1.248 1.9zm-12.6-1.539l2.818 5.79c.696 1.181 2.208 2.24 3.276 2.294l6.251.562c1.32.231 1.945-.72 1.249-1.901l-2.818-5.79c-.696-1.18-2.208-2.24-3.275-2.293l-6.252-.563c-1.32-.23-1.945.72-1.249 1.901zm96.921 9.248l6.252.562c1.32.231 2.832 1.289 3.275 2.294l2.819 5.79c.695 1.181.071 2.132-1.249 1.901l-6.252-.562c-1.32-.231-2.831-1.29-3.275-2.294l-2.818-5.79c-.54-1.419-.072-2.132 1.248-1.901zm-13.692.125l2.818 5.79c.696 1.181 2.208 2.239 3.276 2.294l6.504.738c1.319.231 1.944-.72 1.248-1.901l-2.818-5.79c-.696-1.181-2.207-2.239-3.275-2.294l-6.252-.562c-1.476.007-1.944.72-1.501 1.725zm-12.503-1.125l2.818 5.79c.695 1.181 2.207 2.24 3.275 2.294l6.252.562c1.32.231 1.944-.72 1.249-1.901l-2.819-5.79c-.695-1.181-2.207-2.239-3.275-2.293l-6.252-.563c-1.32-.23-1.944.72-1.248 1.901zm-12.6-1.538l2.818 5.79c.696 1.181 2.208 2.239 3.276 2.294l6.251.562c1.32.23 1.945-.72 1.249-1.901l-2.818-5.79c-.696-1.181-2.208-2.24-3.276-2.294l-6.251-.562c-1.32-.231-1.945.72-1.249 1.901zm33.255-8.628l6.096.8c1.319.23 2.831 1.29 3.275 2.294l2.818 5.79c.696 1.181.071 2.131-1.249 1.901l-6.251-.562c-1.32-.231-2.832-1.29-3.276-2.294l-2.818-5.79c-.539-1.419.085-2.37 1.405-2.139zm-13.848.363l2.818 5.79c.695 1.181 2.207 2.239 3.275 2.293l6.252.563c1.32.23 1.944-.72 1.249-1.901l-2.819-5.79c-.695-1.181-2.207-2.24-3.275-2.294l-6.252-.562c-1.476.007-1.944.72-1.248 1.9zm-12.6-1.539l2.818 5.79c.696 1.181 2.208 2.24 3.276 2.294l6.251.562c1.32.231 1.945-.72 1.249-1.901l-2.818-5.79c-.696-1.18-2.207-2.24-3.275-2.294l-6.252-.562c-1.224.184-1.693.897-1.249 1.901zm-12.599-1.538l3.07 5.966c.695 1.181 2.207 2.24 3.275 2.294l6.252.562c1.32.231 1.944-.72 1.248-1.901l-2.818-5.79c-.695-1.181-2.207-2.24-3.275-2.294l-6.252-.562c-1.476.007-1.944.72-1.5 1.725zm32.006-6.727l2.818 5.79c.696 1.18 2.207 2.24 3.275 2.294l6.252.562c1.32.23 1.944-.72 1.249-1.901l-2.819-5.79c-.695-1.181-2.207-2.24-3.275-2.294l-6.252-.562c-1.224.184-1.692.896-1.248 1.901zm-12.504-1.124l2.818 5.79c.696 1.18 2.208 2.24 3.276 2.293l6.503.739c1.32.23 1.945-.72 1.249-1.901l-2.818-5.79c-.696-1.181-2.208-2.24-3.276-2.294l-6.251-.562c-1.572-.407-2.197.543-1.501 1.725zm-12.6-1.54l2.819 5.79c.695 1.182 2.207 2.24 3.275 2.295l6.252.562c1.32.23 1.944-.72 1.248-1.901l-2.818-5.79c-.695-1.181-2.207-2.24-3.275-2.294l-6.252-.562c-1.32-.23-1.944.72-1.249 1.9zm-12.599-1.538l2.818 5.79c.696 1.181 2.207 2.24 3.275 2.294l6.252.562c1.32.23 1.945-.72 1.249-1.9l-2.818-5.79c-.696-1.182-2.208-2.24-3.276-2.294l-6.251-.563c-1.476.008-1.945.72-1.249 1.901zm32.006-6.726l2.818 5.79c.696 1.18 2.208 2.24 3.276 2.294l6.251.562c1.32.23 1.945-.72 1.249-1.901l-2.818-5.79c-.696-1.181-2.208-2.24-3.276-2.294l-6.251-.562c-1.476.007-1.945.72-1.249 1.9zm-12.599-1.539l2.818 5.79c.695 1.181 2.207 2.24 3.275 2.294l6.252.562c1.32.23 1.944-.72 1.248-1.9l-2.818-5.79c-.695-1.182-2.207-2.24-3.275-2.294l-6.252-.563c-1.224.184-1.692.897-1.248 1.901zm-12.348-1.362l2.818 5.79c.696 1.181 2.207 2.24 3.275 2.294l6.252.562c1.32.23 1.944-.72 1.249-1.9l-2.818-5.79c-.696-1.182-2.208-2.24-3.276-2.295l-6.251-.562c-1.476.007-1.945.72-1.249 1.901zm-12.756-1.3l2.819 5.79c.695 1.18 2.207 2.239 3.275 2.293l6.252.562c1.32.23 1.944-.72 1.248-1.9l-2.818-5.79c-.696-1.182-2.207-2.24-3.275-2.294l-6.252-.563c-1.32-.23-1.944.72-1.249 1.901zm-8.934 19.762l2.974 5.552c.696 1.181 2.208 2.24 3.276 2.294l6.252.562c1.32.23 1.944-.72 1.248-1.9l-2.818-5.79c-.696-1.182-2.207-2.24-3.275-2.295l-6.252-.562c-1.476.007-2.1.958-1.405 2.139zm-12.599-1.539l2.818 5.79c.696 1.181 2.207 2.24 3.275 2.294l6.252.562c1.32.23 1.944-.72 1.249-1.9l-2.819-5.79c-.695-1.182-2.207-2.24-3.275-2.294l-6.252-.563c-1.32-.23-1.944.72-1.248 1.901zm-12.6-1.538l2.818 5.79c.696 1.18 2.208 2.24 3.276 2.293l6.251.563c1.32.23 1.945-.72 1.249-1.901l-2.722-5.376c-.696-1.181-2.208-2.24-3.276-2.294l-6.251-.562c-1.32-.23-1.789.482-1.345 1.487zm-12.599-1.539l3.07 5.966c.695 1.181 2.207 2.24 3.275 2.294l6.252.563c1.32.23 1.944-.72 1.248-1.901l-2.818-5.79c-.695-1.181-2.207-2.24-3.275-2.294l-6.252-.562c-1.476.007-1.944.72-1.5 1.724zm32.006-6.726l2.818 5.79c.696 1.18 2.207 2.24 3.275 2.293l6.252.563c1.32.23 1.944-.72 1.249-1.901l-2.819-5.79c-.695-1.181-2.207-2.24-3.275-2.294l-6.252-.562c-1.224.183-1.692.896-1.248 1.9zm-12.504-1.125l2.818 5.79c.696 1.181 2.208 2.24 3.276 2.294l6.503.739c1.32.23 1.945-.72 1.249-1.901l-2.818-5.79c-.696-1.181-2.208-2.24-3.276-2.294l-6.251-.562c-1.572-.407-2.197.543-1.501 1.724zm-12.599-1.538l2.818 5.79c.695 1.18 2.207 2.24 3.275 2.293l6.252.563c1.32.23 1.944-.72 1.248-1.901l-2.818-5.79c-.695-1.181-2.207-2.24-3.275-2.294l-6.252-.562c-1.32-.231-1.944.72-1.248 1.9zm-12.6-1.539l2.818 5.79c.696 1.18 2.207 2.24 3.275 2.294l6.252.562c1.32.23 1.945-.72 1.249-1.901l-2.818-5.79c-.696-1.181-2.208-2.24-3.276-2.294l-6.251-.562c-1.224.183-1.693.896-1.249 1.901zm32.006-6.727l2.818 5.79c.696 1.181 2.208 2.24 3.276 2.294l6.251.562c1.32.231 1.945-.72 1.249-1.9l-2.818-5.79c-.696-1.181-2.207-2.24-3.275-2.294l-6.252-.563c-1.32-.23-1.945.72-1.249 1.901zm-12.599-1.538l2.818 5.79c.695 1.18 2.207 2.24 3.275 2.294l6.252.562c1.32.23 1.944-.72 1.248-1.901l-2.818-5.79c-.695-1.181-2.207-2.24-3.275-2.294l-6.252-.562c-1.224.183-1.692.896-1.248 1.9zm-12.348-1.362l2.818 5.79c.696 1.18 2.207 2.24 3.275 2.293l6.252.563c1.32.23 1.945-.72 1.249-1.901l-2.818-5.79c-.696-1.181-2.208-2.24-3.276-2.294l-6.251-.562c-1.476.007-1.945.72-1.249 1.9zM336.341 64.5l2.819 5.79c.695 1.18 2.207 2.24 3.275 2.294l6.252.562c1.32.23 1.944-.72 1.248-1.901l-2.818-5.79c-.696-1.181-2.207-2.24-3.275-2.294l-6.252-.562c-1.32-.23-1.944.72-1.249 1.9z" fill="url(#paint14_linear_66_276)"/><path d="M387.485 65.622c-.66-.116-1.476.007-2.388-.285l24.91 48.323 3.864.278-24.658-48.147c-.816.122-1.068-.054-1.728-.17z" fill="#1C4296"/><path opacity=".8" d="M363.153 93.66l-1.682-3.613 2.504-3.806 3.873.28c1.323.233 2.838 1.294 3.282 2.3l2.824 5.803c.697 1.184.071 2.136-1.252 1.904l-6.266-.569c-1.323-.231-2.838-1.293-3.283-2.3zm3.841-8.084c1.323.232 1.949-.72 1.252-1.904l-1.394-2.367-2.504 3.807 2.646.464zm18.34 5.206l2.98 5.564 4.538-6.9-6.11-.805c-1.479.005-2.105.957-1.408 2.14zm-10.818-13.838l-4.378-.635-2.191 3.33 2.188 3.967c.697 1.183 2.212 2.245 3.282 2.3l6.206 1.22c1.323.233 1.949-.719 1.252-1.903l-2.824-5.802c-.697-1.184-2.212-2.245-3.535-2.477zm12.066 19.231l-2.823-5.802c-.697-1.184-2.212-2.246-3.283-2.3l-6.266-.569c-1.323-.232-1.949.72-1.252 1.904l2.824 5.802c.697 1.184 2.212 2.245 3.282 2.3l6.266.569c1.323.231 1.949-.72 1.252-1.904zm6.668-9.578l-2.823-5.802c-.697-1.184-2.212-2.245-3.283-2.3l-6.266-.568c-1.323-.232-1.949.72-1.252 1.903l2.824 5.802c.697 1.184 2.212 2.246 3.282 2.3l6.267.569c1.479-.006 1.948-.72 1.251-1.904zm-27.369 12.45l2.824 5.802c.697 1.183 2.212 2.245 3.282 2.3l6.266.568c1.323.232 1.949-.719 1.252-1.903l-2.824-5.802c-.697-1.184-2.212-2.246-3.282-2.3l-6.266-.569c-1.323-.232-1.793.482-1.252 1.903zm66.201-23.818l2.823 5.802c.697 1.184 2.212 2.246 3.283 2.3l5.857.63 1.408-2.141-2.727-5.388c-.697-1.183-2.212-2.245-3.283-2.3l-6.266-.568c-1.323-.232-1.792.482-1.095 1.665zm3.976 10.781c-.697-1.184-2.212-2.245-3.283-2.3l-6.266-.568c-1.323-.232-1.949.72-1.252 1.903l2.824 5.802c.697 1.184 2.212 2.246 3.282 2.3l6.519.746 1.095-1.666-2.919-6.217zm-10.67 25.196l-2.823-5.803c-.697-1.183-2.212-2.245-3.283-2.3l-6.266-.568-.252-.177-1.096 1.666.253.176 2.823 5.803c.697 1.183 2.212 2.245 3.283 2.3l6.266.568c.914.293 1.54-.659 1.095-1.665zm-74.792-41.64l1.046 1.775c.348.592 1.202 1.537 2.116 1.83l4.851-7.375c-.758-.531-1.515-1.062-2.429-1.355l-2.141-.11-3.443 5.234zm81.621 24.527c-1.323-.232-1.949.72-1.252 1.904l2.379 4.795 3.912-5.948-5.039-.75zm-13.881.353l2.824 5.802c.697 1.184 2.212 2.245 3.283 2.3l6.266.568c.252.177.409-.061.661.116l.783-1.189s-.096-.415-.349-.592l-2.824-5.802c-.697-1.184-2.212-2.246-3.282-2.3l-6.266-.569c-.409.061-.662-.116-.818.122l-.626.952c.252.177.096.415.348.592zm-66.299-18.658c-.601-.768-1.864-1.653-2.682-1.531l-1.575-.41-3.756 5.71.541 1.422c.444 1.007 1.454 1.715 2.368 2.008 1.974-2.44 3.539-4.82 5.104-7.199zm67.516 15.687l5.857.629c1.323.232 1.949-.72 1.252-1.904l-2.728-5.387-4.381 6.662zm32.696 14.224l3.716.519c1.323.232 1.949-.719 1.252-1.903l-1.838-3.374-3.13 4.758zm-50.438-36.043l-6.267-.568c-1.323-.232-1.948.72-1.251 1.903l2.823 5.803c.601.768 1.611 1.476 2.778 1.946 1.564-2.38 3.286-4.996 4.851-7.375-.854-.946-2.02-1.416-2.934-1.71zm35.978 16.525l2.284 4.38 3.599-5.472-4.535-.397c-1.323-.231-1.792.482-1.348 1.489zm-11.977-4.223l6.11.806c1.323.232 1.948-.72 1.251-1.903l-2.98-5.565-4.381 6.662zm-77.154-8.885c1.323.232 1.949-.72 1.252-1.903l-.253-.177c-.312.476-.782 1.19-.999 2.08zm25.161 2.687c1.323.232 1.949-.72 1.252-1.903l-1.49-2.782-2.817 4.282 3.055.403zm.701-6.113l2.283 4.38c.697 1.184 2.212 2.246 3.282 2.301l6.266.568c1.323.232 1.949-.72 1.252-1.903l-2.824-5.802c-.697-1.184-2.211-2.246-3.282-2.3l-4.787-.575-2.19 3.331zm44.908 30.43l-2.379-4.796-3.912 5.948 5.196.513c1.323.232 1.792-.481 1.095-1.665zm-33.148-.638l-.253-.177-6.518-.745c-1.323-.232-1.949.72-1.252 1.904l2.824 5.802.252.177c1.817-2.203 3.382-4.582 4.947-6.96zm-25.111-6.128l-.889-2.013-2.347 3.569 2.141.11c1.323.232 1.792-.482 1.095-1.666zm-1.654 12.049l6.266.568c1.323.232 1.949-.719 1.252-1.903l-2.823-5.802c-.697-1.184-2.212-2.246-3.283-2.3l-3.464-.343-2.66 4.045 1.586 3.197c.384 1.66 1.899 2.721 3.126 2.538zm103.506 10.322l-2.824-5.803c-.697-1.183-2.212-2.245-3.282-2.3l-5.196-.513-1.877 2.855 2.379 4.796c.697 1.183 2.212 2.245 3.282 2.3l6.266.568c1.48-.006 1.949-.72 1.252-1.903zm-32.181-11.083l-5.448-.69c-1.323-.232-1.949.72-1.252 1.903l2.632 4.973 4.068-6.186zm19.553 9.532l-1.586-3.197-2.973 4.52 3.463.342c1.323.232 1.793-.482 1.096-1.665z" fill="url(#paint15_linear_66_276)"/><path d="M468.131 117.521l2.214-2.838c.494 1.039.441 1.709.114 2.195l-2.341 3.077c.327-.486.233-1.579.013-2.434zM334.617 59.549l1.905-2.877c-1.097-.16-2.36-.136-2.68.355l-2.078 3.076c.32-.49 2.014-.497 2.853-.554z" fill="#4074E4"/><path d="M459.5 92.165l15.163-16.056c1.656-2.177 4.989-3.064 8.808-2.59 8.118 1.15 16.629 7.946 19.18 15.085 1.336 3.74.759 6.665-.897 8.843l-15.163 16.055.236-.476c-1.656 2.178-4.868 3.404-9.166 2.727-8.117-1.15-16.628-7.946-19.3-15.425-1.094-3.06-.638-6.325 1.139-8.163zM487.609 105l.486 1.36-.486-1.36z" fill="url(#paint16_linear_66_276)"/><path d="M463.241 78.49c2.093-2.316 5.726-3.715 10.512-2.916 9.459 1.265 26.354 14.86 29.173 23.212 1.353 4.01.914 7.577-1.178 9.893l-33.109 34.184c2.093-2.316 2.531-5.882 1.178-9.892-2.819-8.353-14.906-16.871-24.365-18.136-4.673-.466-8.877 1.295-10.97 3.611l28.759-39.956z" fill="url(#paint17_linear_66_276)"/><path d="M447.424 113.431c-10.322-1.275-15.768 5.309-12.884 13.94 3.004 8.991 13.378 17.153 23.7 18.427 10.321 1.275 15.768-5.309 12.883-13.94-3.124-9.351-13.896-17.358-23.699-18.427z" fill="#2B55B2"/><path d="M410.29 152.948l28.009-31.613c1.709-2.173 5.074-3.092 8.897-2.675 8.122 1.03 16.517 7.629 18.923 14.647 1.26 3.676.617 6.572-1.091 8.745l-28.009 31.613.246-.473c-1.708 2.172-4.959 3.426-9.258 2.814-8.122-1.03-16.517-7.629-19.037-14.981-1.031-3.008-.503-6.238 1.32-8.077zm27.935 12.306l.458 1.337-.458-1.337z" fill="url(#paint18_linear_66_276)"/><path d="M431.612 122.869c2.131-2.283 5.786-3.625 10.558-2.748 9.437 1.417 20.45 11.008 23.131 19.408 1.287 4.033.789 7.593-1.341 9.877l-31.433 34.255c2.13-2.283 2.627-5.844 1.341-9.876-2.681-8.401-10.374-15.939-19.81-17.356-4.665-.541-8.428.465-10.558 2.748l28.112-36.308z" fill="url(#paint19_linear_66_276)"/><path d="M414.561 155.999c-9.337-1.217-14.409 4.629-11.965 12.367 2.546 8.062 11.793 15.436 21.13 16.654 9.337 1.217 14.409-4.629 11.965-12.367-2.546-8.062-12.158-15.301-21.13-16.654z" fill="#2B55B2"/><path d="M410.761 165.547c.951-1.209 2.69-2.026 5.07-1.81 4.694.272 9.395 3.919 11.062 7.9.8 1.91.704 3.67-.247 4.879l-16.163 19.442c.951-1.209-.533-2.146-1.333-4.057-1.666-3.98-6.624-7.367-11.317-7.639-2.314-.056-3.133.581-4.083 1.789l17.011-20.504z" fill="url(#paint20_linear_66_276)"/><path d="M399.578 183.22c-4.793-.253-6.284 2.258-4.667 6.126 1.685 4.028 6.733 7.439 11.526 7.692 4.793.253 6.284-2.258 4.666-6.125-1.684-4.029-6.911-7.356-11.525-7.693z" fill="#1F469E"/><path d="M399.578 183.22c-4.793-.253-6.284 2.258-4.667 6.126 1.685 4.028 6.733 7.439 11.526 7.692 4.793.253 6.284-2.258 4.666-6.125-1.684-4.029-6.911-7.356-11.525-7.693z" fill="url(#paint21_linear_66_276)"/><path fill-rule="evenodd" clip-rule="evenodd" d="M397.901 181.074c.311-2.743 2.657-4.069 6.954-3.21 5.076 1.113 10.047 5.32 10.869 9.633.51 2.679-.285 4.571-2.344 5.287.916-1.06.928-2.712.064-4.748-1.697-4.002-6.935-7.341-11.553-7.714-1.786-.109-3.113.166-3.99.752zm20.777-41.281c.646-5.685 5.513-8.439 14.426-6.668 10.524 2.294 20.826 10.999 22.525 19.933 1.055 5.548-.598 9.47-4.871 10.957 1.906-2.197 1.933-5.623.141-9.845-3.516-8.287-14.373-15.189-23.945-15.949-3.705-.22-6.456.354-8.276 1.572zm29.561-40.874c.198-7.22 5.809-10.776 16.617-8.54 12.139 2.745 24.082 12.848 26.121 23.123 1.29 6.497-.668 11.028-5.774 12.616 1.08-2.448.751-5.767-.947-9.693-4.128-9.547-16.697-17.581-27.728-18.554-3.502-.24-6.26.142-8.289 1.048z" fill="#1F469E"/><path d="M416.516 188.36c.329-1.083.175-2.357-.462-3.822-.94-2.013-2.633-3.824-4.717-5.291-2.053-1.383-4.558-2.302-6.88-2.435-2.321-.133-4.008.628-4.939 1.758l.361-.428c.901-1.214 2.617-1.891 4.939-1.758s4.705 1.004 6.88 2.435c2.053 1.383 3.867 3.242 4.717 5.29.606 1.382.791 2.74.462 3.823-.15.44-.39.916-.66 1.309l-.36.428c.27-.392.54-.785.659-1.309z" fill="#1C4296"/><path d="M420.044 183.958c.33-1.081.177-2.352-.459-3.813-.938-2.008-2.628-3.813-4.71-5.274-2.052-1.378-4.555-2.293-6.876-2.423-2.321-.131-4.007.63-4.939 1.758l.361-.427c.902-1.212 2.618-1.889 4.939-1.759 2.321.131 4.703.998 6.875 2.423 2.052 1.378 3.864 3.231 4.711 5.274.605 1.378.789 2.732.459 3.813-.15.44-.39.915-.661 1.307l-.36.427c.27-.392.541-.784.66-1.306zm-4.646 5.753c.329-1.082.175-2.355-.461-3.817-.938-2.01-2.63-3.818-4.713-5.281-2.053-1.38-4.556-2.297-6.877-2.428-2.322-.132-4.008.628-4.94 1.758l.361-.428c.902-1.213 2.618-1.89 4.939-1.758 2.321.131 4.704 1 6.878 2.428 2.052 1.38 3.865 3.235 4.713 5.281.606 1.379.79 2.735.46 3.817-.149.439-.39.915-.66 1.307l-.361.428c.271-.392.541-.784.661-1.307z" fill="#1C4296"/><path d="M418.938 185.342c.328-1.085.173-2.362-.466-3.831-.941-2.018-2.636-3.835-4.722-5.306-2.056-1.388-4.562-2.311-6.884-2.447-2.323-.135-4.009.626-4.94 1.758l.361-.429c.9-1.216 2.617-1.893 4.939-1.758 2.323.136 4.708 1.011 6.884 2.447 2.056 1.388 3.871 3.252 4.723 5.306.608 1.386.793 2.746.465 3.832a5.555 5.555 0 01-.658 1.311l-.361.429c.27-.393.54-.787.659-1.312z" fill="#1C4296"/><path d="M422.579 180.893c.328-1.087.172-2.366-.467-3.837-.944-2.022-2.64-3.843-4.727-5.318-2.057-1.391-4.564-2.317-6.887-2.454-2.323-.137-4.009.624-4.94 1.757l.36-.43c.9-1.216 2.617-1.894 4.94-1.757 2.323.137 4.71 1.015 6.887 2.455 2.057 1.391 3.874 3.26 4.727 5.317.609 1.388.795 2.751.468 3.838a5.572 5.572 0 01-.659 1.313l-.36.429c.27-.393.54-.787.658-1.313zm-8.318 10.119c.329-1.084.174-2.358-.463-3.824-.94-2.014-2.633-3.826-4.718-5.293-2.054-1.384-4.558-2.304-6.88-2.437-2.322-.134-4.008.627-4.94 1.758l.361-.429c.901-1.214 2.618-1.891 4.939-1.758 2.322.134 4.706 1.006 6.881 2.437 2.054 1.384 3.868 3.244 4.718 5.293.607 1.383.791 2.741.463 3.824-.15.441-.39.917-.66 1.31l-.361.428c.271-.393.541-.785.66-1.309z" fill="#1C4296"/><path d="M417.839 186.747c.328-1.085.173-2.362-.465-3.83-.942-2.018-2.637-3.835-4.723-5.306-2.055-1.387-4.561-2.31-6.883-2.445-2.323-.135-4.009.625-4.94 1.757l.361-.429c.9-1.215 2.617-1.892 4.939-1.757 2.323.135 4.708 1.01 6.884 2.445 2.055 1.388 3.871 3.252 4.722 5.306.608 1.385.793 2.745.465 3.83a5.559 5.559 0 01-.659 1.311l-.36.429c.27-.393.54-.786.659-1.311z" fill="#1C4296"/><path d="M421.272 182.548c.328-1.086.172-2.364-.467-3.835-.943-2.02-2.638-3.839-4.725-5.313-2.056-1.389-4.563-2.314-6.886-2.451-2.323-.136-4.009.625-4.939 1.758l.36-.43c.9-1.216 2.617-1.893 4.94-1.757 2.322.136 4.708 1.013 6.885 2.451 2.056 1.39 3.873 3.257 4.725 5.313.609 1.387.795 2.749.467 3.835a5.568 5.568 0 01-.658 1.313l-.361.429c.27-.394.54-.787.659-1.313z" fill="#1C4296"/><defs><linearGradient id="paint4_linear_66_276" x1="149.536" y1="272.281" x2="149.536" y2="623.353" gradientUnits="userSpaceOnUse"><stop stop-color="#fff"/><stop offset="1" stop-color="#fff" stop-opacity=".3"/></linearGradient><linearGradient id="paint5_linear_66_276" x1="369" y1="462.5" x2="-36.5" y2="475" gradientUnits="userSpaceOnUse"><stop stop-color="#fff"/><stop offset="1" stop-color="#fff" stop-opacity=".3"/></linearGradient><linearGradient id="paint6_linear_66_276" x1="230.004" y1="246.758" x2="230.004" y2="647.36" gradientUnits="userSpaceOnUse"><stop stop-color="#fff"/><stop offset="1" stop-color="#fff" stop-opacity=".3"/></linearGradient><linearGradient id="paint7_linear_66_276" x1="316.5" y1="289.5" x2="-56.5" y2="516.5" gradientUnits="userSpaceOnUse"><stop stop-color="#fff"/><stop offset=".1" stop-color="#fff" stop-opacity=".936"/><stop offset="1" stop-color="#fff" stop-opacity=".3"/></linearGradient><linearGradient id="paint8_linear_66_276" x1="406.907" y1="203.865" x2="282.308" y2="433.106" gradientUnits="userSpaceOnUse"><stop stop-color="#fff" stop-opacity="0"/><stop offset=".63" stop-color="#fff"/></linearGradient><linearGradient id="paint9_linear_66_276" x1="440.247" y1="152.685" x2="225.76" y2="403.351" gradientUnits="userSpaceOnUse"><stop stop-color="#fff" stop-opacity="0"/><stop offset=".704" stop-color="#fff"/></linearGradient><linearGradient id="paint10_linear_66_276" x1="503.9" y1="102.14" x2="503.538" y2="105.867" gradientUnits="userSpaceOnUse"><stop stop-color="#2B55B2"/><stop offset="1" stop-color="#1C4296"/></linearGradient><linearGradient id="paint11_linear_66_276" x1="452.9" y1="91.14" x2="452.538" y2="94.867" gradientUnits="userSpaceOnUse"><stop stop-color="#2B55B2"/><stop offset="1" stop-color="#1C4296"/></linearGradient><linearGradient id="paint12_linear_66_276" x1="613.449" y1="147.715" x2="514.613" y2="74.878" gradientUnits="userSpaceOnUse"><stop stop-color="#7AA4FF"/><stop offset="1" stop-color="#2958C1"/></linearGradient><linearGradient id="paint13_linear_66_276" x1="616.614" y1="137.13" x2="473.619" y2="64.671" gradientUnits="userSpaceOnUse"><stop stop-color="#2B55B2"/><stop offset="1" stop-color="#152F68"/></linearGradient><linearGradient id="paint14_linear_66_276" x1="455.338" y1="128.973" x2="341.878" y2="54.45" gradientUnits="userSpaceOnUse"><stop stop-color="#7AA4FF"/><stop offset="1" stop-color="#2958C1"/></linearGradient><linearGradient id="paint15_linear_66_276" x1="457.594" y1="118.014" x2="294.916" y2="49.73" gradientUnits="userSpaceOnUse"><stop stop-color="#2B55B2"/><stop offset="1" stop-color="#152F68"/></linearGradient><linearGradient id="paint16_linear_66_276" x1="460.208" y1="93.566" x2="486.528" y2="116.261" gradientUnits="userSpaceOnUse"><stop stop-color="#1C4296"/><stop offset=".676" stop-color="#2D5ABF"/><stop offset="1" stop-color="#1C4296"/></linearGradient><linearGradient id="paint17_linear_66_276" x1="455.305" y1="94.69" x2="484.606" y2="120.944" gradientUnits="userSpaceOnUse"><stop stop-color="#4074E4"/><stop offset=".681" stop-color="#234DAB"/><stop offset="1" stop-color="#4074E4"/></linearGradient><linearGradient id="paint18_linear_66_276" x1="424.173" y1="137.066" x2="449.625" y2="159.666" gradientUnits="userSpaceOnUse"><stop stop-color="#1C4296"/><stop offset=".676" stop-color="#2D5ABF"/><stop offset="1" stop-color="#1C4296"/></linearGradient><linearGradient id="paint19_linear_66_276" x1="422.767" y1="135.912" x2="451.64" y2="162.63" gradientUnits="userSpaceOnUse"><stop stop-color="#4074E4"/><stop offset=".681" stop-color="#234DAB"/><stop offset="1" stop-color="#4074E4"/></linearGradient><linearGradient id="paint20_linear_66_276" x1="399.731" y1="178.633" x2="414.94" y2="190.498" gradientUnits="userSpaceOnUse"><stop stop-color="#4074E4"/><stop offset=".681" stop-color="#234DAB"/><stop offset="1" stop-color="#4074E4"/></linearGradient><linearGradient id="paint21_linear_66_276" x1="399.205" y1="182.33" x2="406.71" y2="198.287" gradientUnits="userSpaceOnUse"><stop stop-color="#1D4398"/><stop offset=".495" stop-color="#5586F2"/><stop offset="1" stop-color="#1D4398"/></linearGradient><radialGradient id="paint0_radial_66_276" cx="0" cy="0" r="1" gradientUnits="userSpaceOnUse" gradientTransform="rotate(-1.378 17779.862 -7637.167) scale(208.532 204.39)"><stop stop-color="#1A3D8A"/><stop offset=".203" stop-color="#3567D2"/><stop offset=".232" stop-color="#4479EB"/><stop offset=".521" stop-color="#2C55B1"/><stop offset=".672" stop-color="#264EA8"/><stop offset=".724" stop-color="#254DA6"/><stop offset=".859" stop-color="#1A3D8A"/><stop offset=".998" stop-color="#3567D2"/></radialGradient><radialGradient id="paint1_radial_66_276" cx="0" cy="0" r="1" gradientUnits="userSpaceOnUse" gradientTransform="rotate(80.637 -88.167 318.531) scale(63.8037 65.0726)"><stop stop-color="#fff"/><stop offset="1" stop-color="#fff" stop-opacity="0"/></radialGradient><radialGradient id="paint2_radial_66_276" cx="0" cy="0" r="1" gradientUnits="userSpaceOnUse" gradientTransform="matrix(215.253 0 0 210.972 178.7 408.633)"><stop stop-color="#17CDA6"/><stop offset=".495" stop-color="#46DEBD"/><stop offset="1" stop-color="#54FBD7"/><stop offset="1" stop-color="#fff"/></radialGradient><radialGradient id="paint3_radial_66_276" cx="0" cy="0" r="1" gradientUnits="userSpaceOnUse" gradientTransform="matrix(231.5086 105.64463 -95.62085 209.5426 244.203 313.72)"><stop/><stop offset=".104" stop-color="#272727"/><stop offset=".291" stop-color="#686868"/><stop offset=".47" stop-color="#9E9E9E"/><stop offset=".635" stop-color="#C8C8C8"/><stop offset=".783" stop-color="#E6E6E6"/><stop offset=".91" stop-color="#F8F8F8"/><stop offset="1" stop-color="#fff"/></radialGradient><filter id="filter0_b_66_276" x="104.292" y="251.409" width="282.499" height="227.148" filterUnits="userSpaceOnUse" color-interpolation-filters="sRGB"><feFlood flood-opacity="0" result="BackgroundImageFix"/><feGaussianBlur in="BackgroundImage" stdDeviation="25"/><feComposite in2="SourceAlpha" operator="in" result="effect1_backgroundBlur_66_276"/><feBlend in="SourceGraphic" in2="effect1_backgroundBlur_66_276" result="shape"/></filter><filter id="filter1_b_66_276" x="223.937" y="148.135" width="222.428" height="330.422" filterUnits="userSpaceOnUse" color-interpolation-filters="sRGB"><feFlood flood-opacity="0" result="BackgroundImageFix"/><feGaussianBlur in="BackgroundImage" stdDeviation="25"/><feComposite in2="SourceAlpha" operator="in" result="effect1_backgroundBlur_66_276"/><feBlend in="SourceGraphic" in2="effect1_backgroundBlur_66_276" result="shape"/></filter><filter id="filter2_b_66_276" x="104.583" y="150.585" width="340.221" height="263.419" filterUnits="userSpaceOnUse" color-interpolation-filters="sRGB"><feFlood flood-opacity="0" result="BackgroundImageFix"/><feGaussianBlur in="BackgroundImage" stdDeviation="25"/><feComposite in2="SourceAlpha" operator="in" result="effect1_backgroundBlur_66_276"/><feBlend in="SourceGraphic" in2="effect1_backgroundBlur_66_276" result="shape"/></filter><filter id="filter3_b_66_276" x="105.023" y="150.159" width="340.318" height="329.187" filterUnits="userSpaceOnUse" color-interpolation-filters="sRGB"><feFlood flood-opacity="0" result="BackgroundImageFix"/><feGaussianBlur in="BackgroundImage" stdDeviation="25"/><feComposite in2="SourceAlpha" operator="in" result="effect1_backgroundBlur_66_276"/><feBlend in="SourceGraphic" in2="effect1_backgroundBlur_66_276" result="shape"/></filter></defs></svg>