<svg width="50" height="50" fill="none" xmlns="http://www.w3.org/2000/svg"><circle cx="25" cy="25" r="25" fill="#fff"/><path d="M20 15h-3.889C15.5 15 15 15.5 15 16.111 15 26.544 23.456 35 33.889 35 34.5 35 35 34.5 35 33.889V30.01c0-.611-.5-1.111-1.111-1.111-1.378 0-2.722-.222-3.967-.633a.931.931 0 00-.344-.056c-.29 0-.567.111-.79.322l-2.444 2.445a16.832 16.832 0 01-7.322-7.322l2.445-2.445c.31-.311.4-.744.277-1.133a12.623 12.623 0 01-.633-3.967c0-.611-.5-1.111-1.111-1.111z" fill="#1A3D8A"/></svg>